<svg width="140" height="23" viewBox="0 0 140 23" fill="none" xmlns="http://www.w3.org/2000/svg">
<g clip-path="url(#clip0_707_4371)">
<path d="M42.4236 13.0502C42.4012 13.1101 42.3789 13.1755 42.3621 13.2355C42.1722 13.7586 41.8706 14.1727 41.4517 14.4887C41.0439 14.8102 40.5244 14.9682 39.8821 14.9682C39.2397 14.9682 38.7258 14.8102 38.3125 14.4887C37.9047 14.1781 37.6087 13.7586 37.402 13.2355C37.2121 12.7124 37.1116 12.1511 37.1116 11.5463C37.1116 10.9415 37.2065 10.3802 37.402 9.85712C37.6031 9.33402 37.9047 8.9199 38.3125 8.59296C38.7314 8.27147 39.2509 8.10256 39.8821 8.10256C40.5133 8.10256 41.0495 8.27147 41.4517 8.59296C41.8706 8.91445 42.1666 9.33402 42.3621 9.85712C42.3845 9.91706 42.4068 9.97154 42.418 10.0369L43.8591 9.87891C43.7865 9.59557 43.686 9.33402 43.5575 9.08882C43.2056 8.38045 42.714 7.83556 42.0829 7.45413C41.4517 7.05636 40.7255 6.87109 39.8821 6.87109C39.0386 6.87109 38.3125 7.05636 37.6813 7.45413C37.0613 7.84101 36.5698 8.38045 36.2179 9.08882C35.866 9.78628 35.6816 10.6091 35.6816 11.5517C35.6816 12.4944 35.866 13.3009 36.2179 14.0038C36.5698 14.7012 37.0613 15.2461 37.6813 15.6384C38.3125 16.0253 39.0498 16.2215 39.8821 16.2215C40.7144 16.2215 41.4517 16.0253 42.0829 15.6384C42.714 15.2407 43.2056 14.7012 43.5575 14.0038C43.686 13.7531 43.7921 13.4807 43.8703 13.2028L42.4292 13.0556L42.4236 13.0502Z" fill="black"/>
<path d="M52.9252 6.97998V16.0307H51.5008V14.4995H51.3947C51.1825 14.9572 50.8473 15.3441 50.3893 15.6656C49.9313 15.9871 49.3392 16.1451 48.6466 16.1451C48.0712 16.1451 47.5573 16.0198 47.0993 15.7691C46.6525 15.5185 46.295 15.1425 46.0436 14.6412C45.8593 14.2761 45.742 13.8511 45.6917 13.3498C45.6694 13.1536 45.6582 12.9411 45.6582 12.7232V6.97998H47.0826V12.6305C47.0826 13.2953 47.2725 13.8184 47.6467 14.2162C48.0321 14.6031 48.5237 14.7992 49.1102 14.7992C49.4621 14.7992 49.8251 14.7175 50.1882 14.5377C50.5624 14.3579 50.8697 14.0909 51.1154 13.7258C51.3724 13.3607 51.5008 12.8921 51.5008 12.3308V6.97998H52.9252Z" fill="black"/>
<path d="M59.8113 6.84391C59.6493 6.84391 59.5208 6.83301 59.4147 6.83301C58.8617 6.83301 58.359 6.98013 57.9178 7.25803C57.4709 7.53047 57.1693 7.89555 56.9961 8.34237H56.9012V6.97468H55.5215V16.0308H56.9403V10.304C56.9403 9.88442 57.0464 9.53024 57.2531 9.20875C57.4597 8.88726 57.7334 8.63661 58.0853 8.45679C58.4372 8.27153 58.8338 8.17345 59.2918 8.17345C59.4762 8.17345 59.6549 8.19524 59.8281 8.21704C60.0012 8.23884 60.1073 8.26063 60.1576 8.27153V6.8657C60.0738 6.8548 59.9565 6.84391 59.8057 6.84391H59.8113Z" fill="black"/>
<path d="M66.4369 6.84391C66.286 6.84391 66.1464 6.83301 66.0403 6.83301C65.4929 6.83301 64.9902 6.98013 64.5433 7.25803C64.1076 7.53047 63.7948 7.89555 63.6328 8.34237H63.5379V6.97468H62.1582V16.0308H63.5826V10.304C63.5826 9.88442 63.6887 9.53024 63.8954 9.20875C64.102 8.88726 64.3757 8.63661 64.7276 8.45679C65.0684 8.27153 65.4761 8.17345 65.923 8.17345C66.1129 8.17345 66.2972 8.19524 66.4704 8.21704C66.6435 8.23884 66.7496 8.26063 66.7999 8.27153V6.8657C66.7161 6.8548 66.5988 6.84391 66.4369 6.84391Z" fill="black"/>
<path d="M75.6197 11.3937C75.6197 10.5491 75.5024 9.82987 75.279 9.25773C75.0444 8.68559 74.7316 8.21698 74.3517 7.8628C73.9663 7.51952 73.5418 7.25797 73.067 7.09995C72.5978 6.94193 72.1175 6.87109 71.6371 6.87109C70.8048 6.87109 70.0675 7.06726 69.4475 7.46503C68.8163 7.8628 68.3359 8.41315 67.984 9.12151C67.6321 9.82987 67.459 10.6527 67.459 11.5844C67.459 12.5162 67.6321 13.3172 67.984 14.0147C68.3359 14.7121 68.8275 15.257 69.481 15.6439C70.1234 16.0308 70.8942 16.2269 71.7879 16.2269C72.4079 16.2269 72.9721 16.1343 73.4748 15.9327C73.9775 15.7474 74.402 15.475 74.7483 15.1317C75.0891 14.7993 75.3348 14.3906 75.4745 13.9438L74.0948 13.557C73.9775 13.8784 73.8043 14.14 73.5809 14.347C73.3687 14.5541 73.1005 14.7121 72.7989 14.8157C72.4861 14.9192 72.1566 14.9737 71.7823 14.9737C71.207 14.9737 70.7043 14.8484 70.263 14.6086C69.8273 14.3579 69.481 14.0038 69.2464 13.5243C69.023 13.0992 68.8945 12.587 68.8833 11.9822H75.6197V11.3992V11.3937ZM68.8833 10.778C68.9057 10.353 69.023 9.9661 69.2129 9.59012C69.4252 9.1542 69.7491 8.80002 70.1625 8.52757C70.5702 8.25513 71.0618 8.108 71.6259 8.108C72.1398 8.108 72.5867 8.23333 72.9721 8.46219C73.3463 8.69104 73.6479 9.00163 73.849 9.4103C74.0613 9.80808 74.1562 10.2658 74.1562 10.778H68.8778H68.8833Z" fill="black"/>
<path d="M83.8295 8.36963C83.5725 7.86833 83.2095 7.49235 82.7291 7.2417C82.2599 6.99105 81.7125 6.86572 81.0813 6.86572C80.3887 6.86572 79.8078 7.00195 79.3721 7.28529C78.9252 7.56864 78.6013 7.94461 78.3778 8.40233H78.2605V6.9856H76.8809V16.0308H78.2996V10.5874C78.2996 10.0534 78.4058 9.60654 78.6124 9.24146C78.8135 8.87638 79.104 8.59304 79.4559 8.39688C79.8078 8.21161 80.2155 8.10263 80.6735 8.10263C81.3382 8.10263 81.8465 8.30969 82.232 8.70747C82.6062 9.10524 82.7961 9.65558 82.7961 10.3639V16.0254H84.2205V10.2713C84.2205 9.50846 84.092 8.86549 83.8239 8.36418L83.8295 8.36963Z" fill="black"/>
<path d="M92.1984 13.1646C92.1984 13.1646 92.1872 13.2191 92.1761 13.2355C91.975 13.7586 91.6733 14.1727 91.2544 14.4887C90.8466 14.8102 90.3272 14.9682 89.6848 14.9682C89.0425 14.9682 88.5286 14.8102 88.1264 14.4887C87.7075 14.1781 87.4114 13.7586 87.2048 13.2355C87.0149 12.7124 86.9143 12.1511 86.9143 11.5463C86.9143 10.9415 87.0093 10.3802 87.2048 9.85712C87.4059 9.33402 87.7075 8.9199 88.1264 8.59296C88.5342 8.27147 89.0536 8.10256 89.6848 8.10256C90.316 8.10256 90.8522 8.27147 91.2544 8.59296C91.6733 8.91445 91.9694 9.33402 92.1761 9.85712C92.1872 9.87891 92.1872 9.88981 92.1984 9.91161L93.6283 9.76448C93.5669 9.52473 93.4663 9.30677 93.3602 9.08882C93.0083 8.38045 92.5168 7.83556 91.8856 7.45413C91.2544 7.05636 90.5283 6.87109 89.6848 6.87109C88.8414 6.87109 88.1152 7.05636 87.4952 7.45413C86.864 7.84101 86.3725 8.38045 86.0206 9.08882C85.6687 9.78628 85.4844 10.6091 85.4844 11.5517C85.4844 12.4944 85.6687 13.3009 86.0206 14.0038C86.3725 14.7012 86.864 15.2461 87.4952 15.6384C88.1152 16.0253 88.8526 16.2215 89.6848 16.2215C90.5171 16.2215 91.2544 16.0253 91.8856 15.6384C92.5168 15.2407 93.0083 14.7012 93.3602 14.0038C93.4663 13.7858 93.5613 13.557 93.6395 13.3172L92.1984 13.1701V13.1646Z" fill="black"/>
<path d="M101.163 6.97998L98.5992 14.1835H98.5042L95.9515 6.97998H94.4043L97.8339 16.0743L97.5658 16.7826C97.3926 17.2403 97.2027 17.5727 97.0017 17.7852C96.7894 17.9814 96.5548 18.0958 96.2867 18.1285C96.0186 18.1503 95.7225 18.1176 95.365 18.0359L95.0131 19.2565C95.0746 19.3 95.2142 19.3273 95.3986 19.3709C95.5885 19.4036 95.8063 19.4254 96.0521 19.4254C96.4822 19.4254 96.862 19.3545 97.2083 19.2074C97.5602 19.0494 97.8619 18.8205 98.1188 18.5208C98.3869 18.2103 98.5992 17.8234 98.7835 17.3548L102.716 6.99088H101.174L101.163 6.97998Z" fill="black"/>
<path d="M108.055 6.9801H109.904V8.86544H108.055V16.0308H105.491V8.86544H104.189V6.9801H105.491V6.32078C105.491 5.66146 105.631 5.12201 105.888 4.69155C106.156 4.25563 106.519 3.92869 106.977 3.72163C107.424 3.50368 107.949 3.40015 108.535 3.40015C108.932 3.40015 109.295 3.42194 109.613 3.48188C109.943 3.54182 110.188 3.59631 110.35 3.6399L109.892 5.52524C109.798 5.49254 109.669 5.4653 109.518 5.4435C109.367 5.41081 109.217 5.39991 109.071 5.39991C108.697 5.39991 108.429 5.48164 108.278 5.65056C108.127 5.83038 108.055 6.07013 108.055 6.36982V6.97466V6.9801Z" fill="black"/>
<path d="M112.082 3.9668V16.0308H114.657V3.9668H112.082Z" fill="black"/>
<path d="M124.908 9.08881C124.534 8.39135 124.009 7.83556 123.328 7.45413C122.646 7.05636 121.831 6.87109 120.903 6.87109C119.976 6.87109 119.149 7.05636 118.468 7.45413C117.787 7.84101 117.261 8.39135 116.898 9.08881C116.524 9.78628 116.34 10.6091 116.34 11.5408C116.34 12.4726 116.524 13.2845 116.898 13.982C117.261 14.6903 117.787 15.2352 118.468 15.6167C119.149 16.0144 119.965 16.2106 120.903 16.2106C121.842 16.2106 122.646 16.0144 123.328 15.6167C124.009 15.2298 124.534 14.6903 124.908 13.982C125.271 13.2845 125.467 12.4726 125.467 11.5408C125.467 10.6091 125.277 9.79173 124.908 9.08881ZM122.618 12.9358C122.479 13.3444 122.255 13.6659 121.976 13.9057C121.685 14.1454 121.333 14.2599 120.909 14.2599C120.484 14.2599 120.116 14.1454 119.82 13.9057C119.529 13.6659 119.306 13.3444 119.166 12.9358C119.015 12.5162 118.943 12.0476 118.943 11.5299C118.943 11.0123 119.015 10.5273 119.166 10.1241C119.306 9.70455 119.529 9.38306 119.82 9.1433C120.121 8.90355 120.473 8.77823 120.909 8.77823C121.345 8.77823 121.691 8.90355 121.976 9.1433C122.255 9.38306 122.479 9.70455 122.618 10.1241C122.769 10.5328 122.842 11.0014 122.842 11.5299C122.842 12.0585 122.769 12.5217 122.618 12.9358Z" fill="black"/>
<path d="M137.403 6.97998L135.99 13.0283H135.906L134.387 6.97998H131.834L130.337 13.061H130.253L128.823 6.97998H126.215L128.74 16.0307H131.454L133.057 10.3365H133.163L134.755 16.0307H137.481L140.006 6.97998H137.409H137.403Z" fill="black"/>
<path d="M15.5115 22.9999H9.85876C9.36722 22.9999 8.91478 22.7438 8.66901 22.3297L0.184328 7.9935C-0.0614427 7.57938 -0.0614427 7.06718 0.184328 6.65306L3.00511 1.89068C3.53575 0.997052 4.85397 0.997052 5.38462 1.89068L16.7012 20.9892C17.2319 21.8829 16.5672 22.9999 15.5115 22.9999Z" fill="#4148FF"/>
<path d="M16.9701 10.4075H22.9468C24.0025 10.4075 24.6672 11.5245 24.1366 12.4181L21.1482 17.4693C20.6176 18.3629 19.2994 18.3629 18.7687 17.4693L15.7804 12.4181C15.2497 11.5245 15.9144 10.4075 16.9701 10.4075Z" fill="#01BD7E"/>
<path d="M25.0348 6.90926H13.3104C12.8189 6.90926 12.3664 6.65316 12.1207 6.23904L9.61827 2.01066C9.08763 1.11703 9.75233 0 10.808 0H22.5324C23.024 0 23.4764 0.2561 23.7222 0.67022L26.2246 4.8986C26.7552 5.79223 26.0905 6.90926 25.0348 6.90926Z" fill="#4148FF"/>
</g>
<defs>
<clipPath id="clip0_707_4371">
<rect width="140" height="23" fill="white"/>
</clipPath>
</defs>
</svg>
