<svg width="32" height="32" viewBox="0 0 32 32" fill="none" xmlns="http://www.w3.org/2000/svg">
<g clip-path="url(#clip0_707_4113)">
<path fill-rule="evenodd" clip-rule="evenodd" d="M31.3043 30.0646H0.695652C0.511154 30.0646 0.334212 29.9913 0.203752 29.8609C0.0732917 29.7304 0 29.5535 0 29.369C0 29.1845 0.0732917 29.0075 0.203752 28.8771C0.334212 28.7466 0.511154 28.6733 0.695652 28.6733H31.3043C31.4888 28.6733 31.6658 28.7466 31.7962 28.8771C31.9267 29.0075 32 29.1845 32 29.369C32 29.5535 31.9267 29.7304 31.7962 29.8609C31.6658 29.9913 31.4888 30.0646 31.3043 30.0646ZM10.4348 23.1081C10.6193 23.1081 10.7962 23.1814 10.9267 23.3118C11.0571 23.4423 11.1304 23.6193 11.1304 23.8037C11.1304 23.9882 11.0571 24.1652 10.9267 24.2957C10.7962 24.4261 10.6193 24.4994 10.4348 24.4994H4.86957C4.68507 24.4994 4.50813 24.4261 4.37767 24.2957C4.2472 24.1652 4.17391 23.9882 4.17391 23.8037C4.17391 23.6193 4.2472 23.4423 4.37767 23.3118C4.50813 23.1814 4.68507 23.1081 4.86957 23.1081H5.56522V14.0646H4.86957C4.68507 14.0646 4.50813 13.9913 4.37767 13.8609C4.2472 13.7304 4.17391 13.5535 4.17391 13.369C4.17391 13.1845 4.2472 13.0075 4.37767 12.8771C4.50813 12.7466 4.68507 12.6733 4.86957 12.6733H10.4348C10.6193 12.6733 10.7962 12.7466 10.9267 12.8771C11.0571 13.0075 11.1304 13.1845 11.1304 13.369C11.1304 13.5535 11.0571 13.7304 10.9267 13.8609C10.7962 13.9913 10.6193 14.0646 10.4348 14.0646H9.73913V23.1081H10.4348ZM8.34783 14.0646H6.95652V23.1081H8.34783V14.0646ZM18.7826 23.1081C18.9671 23.1081 19.1441 23.1814 19.2745 23.3118C19.405 23.4423 19.4783 23.6193 19.4783 23.8037C19.4783 23.9882 19.405 24.1652 19.2745 24.2957C19.1441 24.4261 18.9671 24.4994 18.7826 24.4994H13.2174C13.0329 24.4994 12.856 24.4261 12.7255 24.2957C12.595 24.1652 12.5217 23.9882 12.5217 23.8037C12.5217 23.6193 12.595 23.4423 12.7255 23.3118C12.856 23.1814 13.0329 23.1081 13.2174 23.1081H13.913V14.0646H13.2174C13.0329 14.0646 12.856 13.9913 12.7255 13.8609C12.595 13.7304 12.5217 13.5535 12.5217 13.369C12.5217 13.1845 12.595 13.0075 12.7255 12.8771C12.856 12.7466 13.0329 12.6733 13.2174 12.6733H18.7826C18.9671 12.6733 19.1441 12.7466 19.2745 12.8771C19.405 13.0075 19.4783 13.1845 19.4783 13.369C19.4783 13.5535 19.405 13.7304 19.2745 13.8609C19.1441 13.9913 18.9671 14.0646 18.7826 14.0646H18.087V23.1081H18.7826ZM16.6957 14.0646H15.3043V23.1081H16.6957V14.0646ZM29.913 26.5864C29.913 26.7709 29.8398 26.9478 29.7093 27.0783C29.5788 27.2087 29.4019 27.282 29.2174 27.282H2.78261C2.59811 27.282 2.42117 27.2087 2.29071 27.0783C2.16025 26.9478 2.08696 26.7709 2.08696 26.5864C2.08696 26.4019 2.16025 26.2249 2.29071 26.0945C2.42117 25.964 2.59811 25.8907 2.78261 25.8907H29.2174C29.4019 25.8907 29.5788 25.964 29.7093 26.0945C29.8398 26.2249 29.913 26.4019 29.913 26.5864ZM27.1304 23.1081C27.3149 23.1081 27.4919 23.1814 27.6223 23.3118C27.7528 23.4423 27.8261 23.6193 27.8261 23.8037C27.8261 23.9882 27.7528 24.1652 27.6223 24.2957C27.4919 24.4261 27.3149 24.4994 27.1304 24.4994H21.5652C21.3807 24.4994 21.2038 24.4261 21.0733 24.2957C20.9429 24.1652 20.8696 23.9882 20.8696 23.8037C20.8696 23.6193 20.9429 23.4423 21.0733 23.3118C21.2038 23.1814 21.3807 23.1081 21.5652 23.1081H22.2609V14.0646H21.5652C21.3807 14.0646 21.2038 13.9913 21.0733 13.8609C20.9429 13.7304 20.8696 13.5535 20.8696 13.369C20.8696 13.1845 20.9429 13.0075 21.0733 12.8771C21.2038 12.7466 21.3807 12.6733 21.5652 12.6733H27.1304C27.3149 12.6733 27.4919 12.7466 27.6223 12.8771C27.7528 13.0075 27.8261 13.1845 27.8261 13.369C27.8261 13.5535 27.7528 13.7304 27.6223 13.8609C27.4919 13.9913 27.3149 14.0646 27.1304 14.0646H26.4348V23.1081H27.1304ZM25.0435 14.0646H23.6522V23.1081H25.0435V14.0646ZM1.3913 9.89071L16 1.93384L30.6087 9.89071V11.282H1.3913V9.89071ZM27.5068 9.89071L16 3.94149L4.45217 9.89071H27.5068Z" fill="#4148FF"/>
</g>
<defs>
<clipPath id="clip0_707_4113">
<rect width="32" height="32" fill="white"/>
</clipPath>
</defs>
</svg>
