<svg width="32" height="32" viewBox="0 0 32 32" fill="none" xmlns="http://www.w3.org/2000/svg">
<g clip-path="url(#clip0_707_4184)">
<path d="M31.9383 17.4781C31.651 14.5882 30.3599 11.8637 28.3028 9.8065C26.5447 8.04854 24.3929 6.91883 22.1288 6.41651V4.82849C23.0535 4.59842 23.7409 3.76134 23.7409 2.76639C23.7409 1.59462 22.7877 0.641357 21.6159 0.641357H17.1158C15.9441 0.641357 14.9908 1.59462 14.9908 2.76639C14.9908 3.76128 15.6782 4.59836 16.6029 4.82849V6.42095C14.3457 6.92539 12.201 8.05354 10.448 9.80656C10.0643 10.1902 9.71059 10.5926 9.38677 11.0109C9.37108 11.0097 9.3554 11.0085 9.3394 11.0085H4.88551C4.54038 11.0085 4.2605 11.2883 4.2605 11.6335C4.2605 11.9787 4.54038 12.2585 4.88551 12.2585H8.53632C8.07806 13.0257 7.70856 13.8314 7.4273 14.6608H0.62501C0.279879 14.6608 0 14.9406 0 15.2858C0 15.631 0.279879 15.9108 0.62501 15.9108H7.07411C6.89398 16.7015 6.79061 17.5062 6.76392 18.3132H4.00006C3.65493 18.3132 3.37505 18.593 3.37505 18.9382C3.37505 19.2834 3.65493 19.5632 4.00006 19.5632H6.78386C6.83661 20.3722 6.96667 21.177 7.17411 21.9656H3.12505C2.77992 21.9656 2.50004 22.2454 2.50004 22.5906C2.50004 22.9358 2.77992 23.2156 3.12505 23.2156H7.57299C8.18613 24.8375 9.14433 26.3578 10.448 27.6614C12.5071 29.7206 15.2344 31.012 18.1273 31.2978C18.5402 31.3385 18.9534 31.3587 19.3661 31.3587C21.805 31.3587 24.2129 30.6529 26.256 29.3224C26.5453 29.134 26.6271 28.7468 26.4387 28.4575C26.2503 28.1683 25.8632 28.0865 25.5739 28.2749C21.1015 31.1872 15.1119 30.5575 11.3319 26.7775C6.89667 22.3423 6.89667 15.1258 11.3319 10.6905C15.767 6.25538 22.9835 6.25538 27.4188 10.6905C31.1938 14.4656 31.8269 20.4501 28.9242 24.9203C28.7362 25.2098 28.8185 25.5969 29.108 25.7849C29.3976 25.9729 29.7846 25.8906 29.9725 25.6011C31.5234 23.2126 32.2216 20.3279 31.9383 17.4781ZM16.2408 2.76645C16.2408 2.28395 16.6333 1.89144 17.1158 1.89144H21.6159C22.0984 1.89144 22.4909 2.28395 22.4909 2.76645C22.4909 3.24896 22.0984 3.64147 21.6159 3.64147H21.5038H17.2279H17.1158C16.6333 3.64147 16.2408 3.2489 16.2408 2.76645ZM17.8529 6.20607V4.89149H20.8788V6.20382C19.874 6.08432 18.8575 6.08507 17.8529 6.20607Z" fill="#4148FF"/>
<path d="M27.8613 26.5942C27.6963 26.5942 27.5357 26.6611 27.4195 26.7774C27.3026 26.8936 27.2363 27.0549 27.2363 27.2192C27.2363 27.3836 27.3026 27.5449 27.4195 27.6611C27.5357 27.778 27.6964 27.8442 27.8613 27.8442C28.0257 27.8442 28.1863 27.778 28.3032 27.6611C28.4195 27.5449 28.4863 27.3836 28.4863 27.2192C28.4863 27.0549 28.4195 26.8936 28.3032 26.7774C28.1863 26.6611 28.0256 26.5942 27.8613 26.5942Z" fill="#4148FF"/>
<path d="M19.3754 9.03821C14.0292 9.03821 9.67969 13.3877 9.67969 18.7339C9.67969 24.0802 14.0292 28.4296 19.3754 28.4296C24.7216 28.4296 29.0711 24.0802 29.0711 18.7339C29.0711 13.3877 24.7216 9.03821 19.3754 9.03821ZM19.3754 27.1796C14.7184 27.1796 10.9297 23.3909 10.9297 18.7339C10.9297 14.077 14.7184 10.2882 19.3754 10.2882C24.0324 10.2882 27.8211 14.077 27.8211 18.7339C27.8211 23.3909 24.0324 27.1796 19.3754 27.1796Z" fill="#4148FF"/>
<path d="M23.3284 13.8964L20.2327 16.992C19.9738 16.864 19.6826 16.7917 19.3748 16.7917C19.0669 16.7917 18.7758 16.864 18.5169 16.992L17.1315 15.6066C16.8873 15.3625 16.4917 15.3625 16.2475 15.6066C16.0034 15.8506 16.0034 16.2464 16.2475 16.4905L17.633 17.8759C17.5049 18.1348 17.4326 18.426 17.4326 18.7338C17.4326 19.8047 18.3038 20.676 19.3748 20.676C20.4458 20.676 21.317 19.8047 21.317 18.7338C21.317 18.426 21.2446 18.1348 21.1166 17.8759L24.1214 14.8711L24.2123 14.7803C24.4563 14.5363 24.4563 14.1405 24.2123 13.8964C23.9682 13.6524 23.5726 13.6524 23.3284 13.8964ZM19.3748 19.426C18.9932 19.426 18.6827 19.1155 18.6827 18.7339C18.6827 18.3522 18.9932 18.0417 19.3748 18.0417C19.7564 18.0417 20.0669 18.3522 20.0669 18.7339C20.0669 19.1155 19.7564 19.426 19.3748 19.426Z" fill="#4148FF"/>
<path d="M26.0576 18.1165H25.4785C25.1334 18.1165 24.8535 18.3963 24.8535 18.7415C24.8535 19.0866 25.1334 19.3665 25.4785 19.3665H26.0576C26.4027 19.3665 26.6826 19.0866 26.6826 18.7415C26.6826 18.3963 26.4027 18.1165 26.0576 18.1165Z" fill="#4148FF"/>
<path d="M13.2724 18.1013H12.6934C12.3482 18.1013 12.0684 18.3811 12.0684 18.7263C12.0684 19.0715 12.3482 19.3513 12.6934 19.3513H13.2724C13.6175 19.3513 13.8974 19.0715 13.8974 18.7263C13.8974 18.3811 13.6175 18.1013 13.2724 18.1013Z" fill="#4148FF"/>
<path d="M19.3828 13.2554C19.7279 13.2554 20.0078 12.9756 20.0078 12.6304V12.0514C20.0078 11.7062 19.7279 11.4264 19.3828 11.4264C19.0377 11.4264 18.7578 11.7062 18.7578 12.0514V12.6304C18.7578 12.9756 19.0377 13.2554 19.3828 13.2554Z" fill="#4148FF"/>
<path d="M19.3672 24.2124C19.0221 24.2124 18.7422 24.4922 18.7422 24.8374V25.4164C18.7422 25.7616 19.0221 26.0414 19.3672 26.0414C19.7123 26.0414 19.9922 25.7616 19.9922 25.4164V24.8374C19.9922 24.4922 19.7123 24.2124 19.3672 24.2124Z" fill="#4148FF"/>
<path d="M0.625 21.9653C0.460625 21.9653 0.299375 22.0322 0.183125 22.1485C0.066875 22.2647 0 22.426 0 22.5903C0 22.7553 0.0668125 22.916 0.183125 23.0322C0.299437 23.1485 0.460625 23.2153 0.625 23.2153C0.789375 23.2153 0.950625 23.1485 1.06681 23.0322C1.18306 22.916 1.25 22.7547 1.25 22.5903C1.25 22.426 1.18313 22.2647 1.06681 22.1485C0.950625 22.0322 0.789375 21.9653 0.625 21.9653Z" fill="#4148FF"/>
</g>
<defs>
<clipPath id="clip0_707_4184">
<rect width="32" height="32" fill="white"/>
</clipPath>
</defs>
</svg>
