<svg width="37" height="32" viewBox="0 0 37 32" fill="none" xmlns="http://www.w3.org/2000/svg">
<g clip-path="url(#clip0_707_4246)">
<path d="M21.732 32H13.8124C13.1237 32 12.4898 31.6437 12.1455 31.0675L0.258249 11.1215C-0.0860829 10.5454 -0.0860829 9.83274 0.258249 9.25658L4.21024 2.63066C4.95368 1.38735 6.80055 1.38735 7.54399 2.63066L23.3989 29.2026C24.1423 30.4459 23.2111 32 21.732 32Z" fill="#4148FF"/>
<path d="M23.7741 14.48H32.1476C33.6266 14.48 34.5579 16.0341 33.8145 17.2774L29.6277 24.3051C28.8843 25.5484 27.0374 25.5484 26.2939 24.3051L22.1072 17.2774C21.3637 16.0341 22.295 14.48 23.7741 14.48Z" fill="#01BD7E"/>
<path d="M35.0753 9.61289H18.6491C17.9605 9.61289 17.3266 9.25657 16.9822 8.68041L13.4763 2.79744C12.7329 1.55413 13.6641 0 15.1432 0H31.5694C32.2581 0 32.8919 0.356314 33.2363 0.932481L36.7422 6.81545C37.4856 8.05875 36.5544 9.61289 35.0753 9.61289Z" fill="#4148FF"/>
</g>
<defs>
<clipPath id="clip0_707_4246">
<rect width="37" height="32" fill="white"/>
</clipPath>
</defs>
</svg>
