<svg width="32" height="32" viewBox="0 0 32 32" fill="none" xmlns="http://www.w3.org/2000/svg">
<g clip-path="url(#clip0_707_4221)">
<mask id="mask0_707_4221" style="mask-type:luminance" maskUnits="userSpaceOnUse" x="0" y="0" width="32" height="32">
<path d="M0 0H32V32H0V0Z" fill="white"/>
</mask>
<g mask="url(#mask0_707_4221)">
<path fill-rule="evenodd" clip-rule="evenodd" d="M16.6665 2.66714C16.3016 2.66714 16.0004 2.96845 16.0004 3.33332V16.6666C16.0004 17.0315 16.3016 17.3328 16.6665 17.3328H20.667V19.2806L23.563 17.3328H29.9998C30.3647 17.3328 30.666 17.0315 30.666 16.6666V3.33332C30.666 2.96845 30.3647 2.66714 29.9998 2.66714H16.6665ZM14.666 3.33332C14.666 2.23152 15.5647 1.33282 16.6665 1.33282H29.9998C31.1016 1.33282 32.0004 2.23152 32.0004 3.33332V16.6666C32.0004 17.7684 31.1016 18.6672 29.9998 18.6672H23.97L19.3327 21.786V18.6672H16.6665C15.5647 18.6672 14.666 17.7684 14.666 16.6666V3.33332Z" fill="#4148FF"/>
<path fill-rule="evenodd" clip-rule="evenodd" d="M0 13.3335C0 12.2317 0.898697 11.3331 2.00049 11.3331H15.3338V12.6674H2.00049C1.63562 12.6674 1.33432 12.9687 1.33432 13.3335V26.6669C1.33432 27.0317 1.63562 27.3331 2.00049 27.3331H8.43694L11.3417 29.2823V27.3331H15.3422C15.707 27.3331 16.0084 27.0317 16.0084 26.6669V18.0002H17.3426V26.6669C17.3426 27.7687 16.444 28.6674 15.3422 28.6674H12.676V31.7847L8.0307 28.6674H2.00049C0.898697 28.6674 0 27.7687 0 26.6669V13.3335Z" fill="#4148FF"/>
<path fill-rule="evenodd" clip-rule="evenodd" d="M4.66602 18C4.66602 16.5232 5.85637 15.3328 7.33317 15.3328H9.99984C11.4766 15.3328 12.667 16.5232 12.667 18V18.6666H11.3327V18C11.3327 17.2601 10.7397 16.6671 9.99984 16.6671H7.33317C6.59328 16.6671 6.00032 17.2601 6.00032 18V22C6.00032 22.7399 6.59328 23.3328 7.33317 23.3328H9.99984C10.7397 23.3328 11.3327 22.7399 11.3327 22V21.3333H12.667V22C12.667 23.4768 11.4766 24.6671 9.99984 24.6671H7.33317C5.85637 24.6671 4.66602 23.4768 4.66602 22V18Z" fill="#4148FF"/>
<path fill-rule="evenodd" clip-rule="evenodd" d="M10.0006 19.3341H3.33398V17.9998H10.0006V19.3341Z" fill="#4148FF"/>
<path fill-rule="evenodd" clip-rule="evenodd" d="M10.0006 22.0006H3.33398V20.6663H10.0006V22.0006Z" fill="#4148FF"/>
<path fill-rule="evenodd" clip-rule="evenodd" d="M24.0003 14.0001V16.0001H22.666V14.0001H24.0003Z" fill="#4148FF"/>
<path fill-rule="evenodd" clip-rule="evenodd" d="M22.666 6.00028V4.00031H24.0003V6.00028H22.666Z" fill="#4148FF"/>
<path fill-rule="evenodd" clip-rule="evenodd" d="M19.334 8.00023C19.334 6.52343 20.5243 5.33307 22.0011 5.33307H24.6678C26.1446 5.33307 27.3349 6.52343 27.3349 8.00023V8.6669H26.0007V8.00023C26.0007 7.26034 25.4076 6.66738 24.6678 6.66738H22.0011C21.2612 6.66738 20.6683 7.26034 20.6683 8.00023C20.6683 8.74013 21.2612 9.33309 22.0011 9.33309H24.6678C26.1446 9.33309 27.3349 10.5234 27.3349 12.0002C27.3349 13.477 26.1446 14.6674 24.6678 14.6674H22.0011C20.5243 14.6674 19.334 13.477 19.334 12.0002V11.3336H20.6683V12.0002C20.6683 12.7401 21.2612 13.3331 22.0011 13.3331H24.6678C25.4076 13.3331 26.0007 12.7401 26.0007 12.0002C26.0007 11.2603 25.4076 10.6674 24.6678 10.6674H22.0011C20.5243 10.6674 19.334 9.47703 19.334 8.00023Z" fill="#4148FF"/>
</g>
</g>
<defs>
<clipPath id="clip0_707_4221">
<rect width="32" height="32" fill="white"/>
</clipPath>
</defs>
</svg>
