<svg width="32" height="32" viewBox="0 0 32 32" fill="none" xmlns="http://www.w3.org/2000/svg">
<g clip-path="url(#clip0_707_4090)">
<path d="M11.0573 9.1013H9.0183C8.52763 9.1013 8.12838 8.70161 8.12838 8.21038C8.12838 7.71746 8.527 7.31947 9.01817 7.31947C9.02275 7.31947 9.02727 7.31953 9.03185 7.31953H10.9844C11.335 7.32304 11.6818 7.48053 11.9361 7.75209C12.2915 8.13145 12.887 8.15077 13.2664 7.79551C13.6457 7.44012 13.6652 6.84455 13.3098 6.46519C12.7038 5.81829 11.8603 5.44364 10.9954 5.43717C10.993 5.43717 10.9907 5.43717 10.9884 5.43717H10.979V4.60084C10.979 4.08106 10.5576 3.65967 10.0378 3.65967C9.51806 3.65967 9.09667 4.08106 9.09667 4.60084V5.43711C7.38843 5.43711 6.24609 6.74767 6.24609 8.21032C6.24609 9.73948 7.4897 10.9836 9.01836 10.9836H11.0574C11.5481 10.9836 11.9473 11.3832 11.9473 11.8744C11.9473 12.3674 11.5487 12.7654 11.0576 12.7654C11.053 12.7654 11.0484 12.7653 11.0439 12.7653H8.91351C8.66586 12.7628 8.40289 12.6734 8.17268 12.5136C7.74564 12.217 7.15922 12.3229 6.86282 12.7501C6.56641 13.177 6.6722 13.7635 7.09924 14.0599C7.77714 14.5305 8.38771 14.6477 9.09673 14.6477V15.4839C9.09673 16.0037 9.51812 16.4251 10.0379 16.4251C10.5577 16.4251 10.9791 16.0037 10.9791 15.4839V14.6477C12.6996 14.6477 13.8297 13.3257 13.8297 11.8744C13.8296 10.3453 12.586 9.1013 11.0573 9.1013Z" fill="#4148FF"/>
<path d="M19.8557 12.1387C21.1886 5.86171 16.3802 0 10.0375 0C4.50278 0 0 4.50504 0 10.0424C0 16.3886 5.86366 21.2073 12.1456 19.8627C10.8135 26.1173 15.6014 32 21.9626 32C27.4972 32 32 27.495 32 21.9576C32 15.6132 26.1369 10.7909 19.8557 12.1387ZM1.88235 10.0424C1.88235 5.54296 5.54071 1.88235 10.0375 1.88235C15.6988 1.88235 19.6577 7.55395 17.6887 12.8727C15.5789 13.8701 13.8702 15.5819 12.8761 17.6943C7.56229 19.6722 1.88235 15.7158 1.88235 10.0424ZM21.9626 30.1176C17.4659 30.1176 13.8076 26.4571 13.8076 21.9576C13.8076 17.4583 17.4659 13.7977 21.9626 13.7977C26.4593 13.7977 30.1176 17.4583 30.1176 21.9576C30.1176 26.4571 26.4593 30.1176 21.9626 30.1176Z" fill="#4148FF"/>
<path d="M25.1734 25.2578C23.8595 24.8407 22.4864 24.7082 21.1332 24.8618C21.3239 24.2767 21.4583 23.6763 21.5356 23.0668H22.6635C23.1833 23.0668 23.6047 22.6454 23.6047 22.1256C23.6047 21.6058 23.1833 21.1844 22.6635 21.1844H21.592C21.5725 20.8868 21.5605 20.8019 21.4809 20.0749C21.3489 18.87 22.8444 18.2257 23.6362 19.1186C23.981 19.5075 24.5759 19.5434 24.9648 19.1984C25.3537 18.8536 25.3896 18.2587 25.0447 17.8698C23.0472 15.6167 19.2773 17.2503 19.6098 20.2801C19.6947 21.0546 19.6884 20.9852 19.7044 21.1843H19.0349C18.5151 21.1843 18.0938 21.6057 18.0938 22.1255C18.0938 22.6453 18.5151 23.0667 19.0349 23.0667H19.6339C19.4891 23.9828 19.1837 24.8704 18.7233 25.6966C18.3167 26.4263 18.9962 27.2876 19.8005 27.0607C21.3942 26.6121 22.8803 26.5046 24.6039 27.0518C25.0986 27.2089 25.6283 26.9357 25.7858 26.4396C25.9429 25.9442 25.6688 25.4151 25.1734 25.2578Z" fill="#4148FF"/>
<path d="M23.371 2.95999C25.2153 2.95999 27.1754 4.35262 27.1754 6.93351V7.81972L26.3277 6.97166C25.9604 6.60398 25.3643 6.60398 24.9967 6.97129C24.6291 7.33872 24.6289 7.93467 24.9963 8.3023L27.4508 10.7581C27.8148 11.1227 28.4126 11.128 28.7821 10.7581L31.2367 8.3023C31.6041 7.93467 31.604 7.33878 31.2363 6.97129C30.8687 6.60379 30.2727 6.60398 29.9053 6.97166L29.0576 7.81979V6.93351C29.0576 3.50945 26.4564 1.07764 23.3709 1.07764C22.8511 1.07764 22.4297 1.49903 22.4297 2.01881C22.4297 2.53859 22.8512 2.95999 23.371 2.95999Z" fill="#4148FF"/>
<path d="M8.62565 29.0402C6.78138 29.0402 4.82129 27.6476 4.82129 25.0667V24.1804L5.66897 25.0286C6.03634 25.3961 6.63217 25.3965 6.99998 25.0289C7.36767 24.6615 7.3678 24.0656 7.00036 23.6979L4.54583 21.242C4.18172 20.8772 3.58276 20.873 3.21451 21.242L0.759857 23.698C0.392422 24.0656 0.392548 24.6615 0.760234 25.029C1.12779 25.3964 1.72375 25.3963 2.09125 25.0286L2.93893 24.1805V25.0667C2.93893 28.4908 5.54016 30.9226 8.62565 30.9226C9.14543 30.9226 9.56682 30.5012 9.56682 29.9814C9.56682 29.4616 9.14543 29.0402 8.62565 29.0402Z" fill="#4148FF"/>
</g>
<defs>
<clipPath id="clip0_707_4090">
<rect width="32" height="32" fill="white"/>
</clipPath>
</defs>
</svg>
