<svg width="32" height="32" viewBox="0 0 32 32" fill="none" xmlns="http://www.w3.org/2000/svg">
<path d="M24.066 8.10675C21.9695 6.01913 19.1313 4.84706 16.1727 4.84706C13.214 4.84706 10.3759 6.01913 8.27935 8.10675L6.66602 9.72009V5.84009C6.66602 5.57487 6.56066 5.32053 6.37312 5.13298C6.18559 4.94545 5.93123 4.84009 5.66602 4.84009C5.4008 4.84009 5.14644 4.94545 4.95891 5.13298C4.77138 5.32053 4.66602 5.57487 4.66602 5.84009V12.1601C4.66599 12.4266 4.77092 12.6823 4.95808 12.872C5.14524 13.0616 5.39958 13.1699 5.66602 13.1734H11.9993C12.2646 13.1734 12.5189 13.0681 12.7065 12.8805C12.894 12.693 12.9993 12.4386 12.9993 12.1734C12.9993 11.9082 12.894 11.6539 12.7065 11.4663C12.5189 11.2788 12.2646 11.1734 11.9993 11.1734H7.99935L9.69268 9.52009C11.4125 7.80375 13.7429 6.83981 16.1727 6.83981C18.6024 6.83981 20.9328 7.80375 22.6527 9.52009C30.906 18.4401 18.6527 30.7334 9.69268 22.4801C9.50518 22.2929 9.25102 22.1877 8.98602 22.1877C8.72102 22.1877 8.46686 22.2929 8.27935 22.4801C8.185 22.5721 8.11003 22.682 8.05883 22.8033C8.00763 22.9246 7.98126 23.055 7.98126 23.1868C7.98126 23.3185 8.00763 23.4489 8.05883 23.5702C8.11003 23.6916 8.185 23.8016 8.27935 23.8934C10.3728 25.9869 13.2121 27.163 16.1727 27.163C19.1332 27.163 21.9725 25.9869 24.066 23.8934C26.1595 21.8 27.3355 18.9606 27.3355 16.0001C27.3355 13.0395 26.1595 10.2002 24.066 8.10675Z" fill="#4148FF"/>
<path d="M16 10.3334C15.7359 10.3368 15.4835 10.4433 15.2967 10.6301C15.1099 10.8169 15.0035 11.0692 15 11.3334V16C15.0003 16.2651 15.1057 16.5194 15.2933 16.7067L18.6667 20C18.7589 20.0935 18.8691 20.1676 18.9904 20.218C19.1117 20.2683 19.242 20.294 19.3733 20.2934C19.5489 20.2678 19.7145 20.1959 19.8532 20.0852C19.9919 19.9746 20.0985 19.8288 20.1624 19.6632C20.2261 19.4978 20.2448 19.3182 20.2163 19.143C20.1877 18.9679 20.1131 18.8035 20 18.6667L16.96 15.6267V11.3334C16.9569 11.0759 16.856 10.8293 16.6777 10.6435C16.4995 10.4578 16.2571 10.3469 16 10.3334Z" fill="#4148FF"/>
</svg>
