<svg width="32" height="32" viewBox="0 0 32 32" fill="none" xmlns="http://www.w3.org/2000/svg">
<g clip-path="url(#clip0_707_4137)">
<path d="M6.66667 4H9.33333V6.66667H6.66667V13.3333C6.66667 14.0406 6.38572 14.7189 5.88562 15.219C5.38552 15.719 4.70724 16 4 16C4.70724 16 5.38552 16.281 5.88562 16.781C6.38572 17.2811 6.66667 17.9594 6.66667 18.6667V25.3333H9.33333V28H6.66667C5.24 27.64 4 26.8 4 25.3333V20C4 19.2928 3.71905 18.6145 3.21895 18.1144C2.71885 17.6143 2.04058 17.3333 1.33333 17.3333H0V14.6667H1.33333C2.04058 14.6667 2.71885 14.3857 3.21895 13.8856C3.71905 13.3855 4 12.7072 4 12V6.66667C4 5.95942 4.28095 5.28115 4.78105 4.78105C5.28115 4.28095 5.95942 4 6.66667 4ZM25.3333 4C26.0406 4 26.7189 4.28095 27.219 4.78105C27.719 5.28115 28 5.95942 28 6.66667V12C28 12.7072 28.281 13.3855 28.781 13.8856C29.2811 14.3857 29.9594 14.6667 30.6667 14.6667H32V17.3333H30.6667C29.9594 17.3333 29.2811 17.6143 28.781 18.1144C28.281 18.6145 28 19.2928 28 20V25.3333C28 26.0406 27.719 26.7189 27.219 27.219C26.7189 27.719 26.0406 28 25.3333 28H22.6667V25.3333H25.3333V18.6667C25.3333 17.9594 25.6143 17.2811 26.1144 16.781C26.6145 16.281 27.2928 16 28 16C27.2928 16 26.6145 15.719 26.1144 15.219C25.6143 14.7189 25.3333 14.0406 25.3333 13.3333V6.66667H22.6667V4H25.3333ZM16 20C16.2637 20 16.5215 20.0782 16.7408 20.2247C16.96 20.3712 17.1309 20.5795 17.2318 20.8231C17.3328 21.0667 17.3592 21.3348 17.3077 21.5935C17.2563 21.8521 17.1293 22.0897 16.9428 22.2761C16.7563 22.4626 16.5188 22.5896 16.2601 22.641C16.0015 22.6925 15.7334 22.6661 15.4898 22.5652C15.2461 22.4643 15.0379 22.2934 14.8914 22.0741C14.7449 21.8548 14.6667 21.597 14.6667 21.3333C14.6667 20.9797 14.8071 20.6406 15.0572 20.3905C15.3072 20.1405 15.6464 20 16 20ZM10.6667 20C10.9304 20 11.1882 20.0782 11.4074 20.2247C11.6267 20.3712 11.7976 20.5795 11.8985 20.8231C11.9994 21.0667 12.0258 21.3348 11.9744 21.5935C11.9229 21.8521 11.7959 22.0897 11.6095 22.2761C11.423 22.4626 11.1854 22.5896 10.9268 22.641C10.6681 22.6925 10.4001 22.6661 10.1564 22.5652C9.91279 22.4643 9.70455 22.2934 9.55804 22.0741C9.41153 21.8548 9.33333 21.597 9.33333 21.3333C9.33333 20.9797 9.47381 20.6406 9.72386 20.3905C9.97391 20.1405 10.313 20 10.6667 20ZM21.3333 20C21.597 20 21.8548 20.0782 22.0741 20.2247C22.2934 20.3712 22.4643 20.5795 22.5652 20.8231C22.6661 21.0667 22.6925 21.3348 22.641 21.5935C22.5896 21.8521 22.4626 22.0897 22.2761 22.2761C22.0897 22.4626 21.8521 22.5896 21.5935 22.641C21.3348 22.6925 21.0667 22.6661 20.8231 22.5652C20.5795 22.4643 20.3712 22.2934 20.2247 22.0741C20.0782 21.8548 20 21.597 20 21.3333C20 20.9797 20.1405 20.6406 20.3905 20.3905C20.6406 20.1405 20.9797 20 21.3333 20Z" fill="#4148FF"/>
</g>
<defs>
<clipPath id="clip0_707_4137">
<rect width="32" height="32" fill="white"/>
</clipPath>
</defs>
</svg>
