<svg width="32" height="32" viewBox="0 0 32 32" fill="none" xmlns="http://www.w3.org/2000/svg">
<g clip-path="url(#clip0_707_4163)">
<path d="M15.9999 0.533325C7.46654 0.533325 0.533203 7.46666 0.533203 16C0.533203 24.5333 7.46654 31.4667 15.9999 31.4667C24.5332 31.4667 31.4665 24.5333 31.4665 16C31.4665 7.46666 24.5332 0.533325 15.9999 0.533325ZM30.3999 15.4667H17.2799H16.5332V1.59999C20.3199 1.75999 23.6799 3.30666 26.1865 5.81332C28.6932 8.31999 30.2399 11.68 30.3999 15.4667ZM5.8132 5.81332C8.31987 3.30666 11.6799 1.75999 15.4665 1.59999V15.4667H1.59987C1.75987 11.68 3.30654 8.31999 5.8132 5.81332ZM5.43987 25.8133C3.19987 23.36 1.75987 20.1067 1.59987 16.5333H14.7199L5.43987 25.8133ZM26.1865 26.1867C23.5732 28.8 19.9999 30.4 15.9999 30.4C12.2132 30.4 8.79987 28.96 6.18654 26.56L16.2132 16.5333H30.3999C30.2399 20.32 28.6932 23.68 26.1865 26.1867Z" fill="#4148FF" stroke="#4148FF"/>
</g>
<defs>
<clipPath id="clip0_707_4163">
<rect width="32" height="32" fill="white"/>
</clipPath>
</defs>
</svg>
