<svg width="16" height="17" viewBox="0 0 16 17" fill="none" xmlns="http://www.w3.org/2000/svg">
<path d="M0.544922 1.30397C0.544922 0.960806 0.82311 0.682617 1.16627 0.682617H5.091C5.43417 0.682617 5.71236 0.960806 5.71236 1.30397V5.2287C5.71236 5.57186 5.43417 5.85005 5.091 5.85005H1.16627C0.82311 5.85005 0.544922 5.57186 0.544922 5.2287V1.30397ZM0.544922 10.2748C0.544922 9.93162 0.82311 9.65343 1.16627 9.65343H5.091C5.43417 9.65343 5.71236 9.93162 5.71236 10.2748V14.1995C5.71236 14.5427 5.43417 14.8209 5.091 14.8209H1.16627C0.82311 14.8209 0.544922 14.5427 0.544922 14.1995V10.2748ZM9.51573 1.30397C9.51573 0.960806 9.79392 0.682617 10.1371 0.682617H14.0618C14.405 0.682617 14.6832 0.960805 14.6832 1.30397V5.2287C14.6832 5.57186 14.405 5.85005 14.0618 5.85005H10.1371C9.79392 5.85005 9.51573 5.57186 9.51573 5.2287V1.30397ZM11.6601 9.02257C11.9027 8.77991 12.2962 8.77991 12.5388 9.02257L15.314 11.7978C15.5567 12.0404 15.5567 12.4338 15.314 12.6765L12.5388 15.4517C12.2962 15.6944 11.9027 15.6944 11.6601 15.4517L8.88489 12.6765C8.64223 12.4338 8.64223 12.0404 8.88489 11.7978L11.6601 9.02257Z" stroke="#4148FF"/>
</svg>
