<svg width="19" height="19" viewBox="0 0 19 19" fill="none" xmlns="http://www.w3.org/2000/svg">
<g clip-path="url(#clip0_707_4288)">
<path d="M15.4007 8.34847C15.2889 8.34847 15.1729 8.35681 15.0358 8.37475C14.8919 8.39361 14.7905 8.52554 14.8093 8.66946C14.8282 8.81338 14.9601 8.91489 15.1041 8.89594C15.2179 8.88104 15.3122 8.87407 15.4007 8.87407C16.6498 8.87407 17.666 9.89029 17.666 11.1394C17.666 12.3885 16.6498 13.4047 15.4007 13.4047H3.32184C1.91787 13.4047 0.775634 12.2625 0.775634 10.8585C0.775634 9.45451 1.91787 8.31227 3.31844 8.3122L3.32457 8.31262C3.3361 8.31346 3.34766 8.31416 3.3594 8.31434C3.49375 8.31676 3.6062 8.21832 3.6238 8.08622C3.88367 6.13328 5.56528 4.66052 7.53539 4.66052C8.84849 4.66052 10.0725 5.3108 10.8097 6.39998C10.8762 6.49831 11.0006 6.53973 11.1126 6.50125C11.4128 6.3982 11.7214 6.34595 12.0298 6.34595C13.0334 6.34595 13.97 6.88651 14.4742 7.75671C14.547 7.8823 14.7078 7.92513 14.8333 7.85238C14.9589 7.7796 15.0018 7.61879 14.9289 7.4932C14.3311 6.46131 13.2202 5.82028 12.0298 5.82028C11.728 5.82028 11.4266 5.86219 11.1313 5.94506C10.2874 4.80805 8.9575 4.13489 7.53539 4.13489C6.4441 4.13489 5.39343 4.53251 4.5768 5.25456C3.82536 5.91899 3.32012 6.8132 3.13853 7.79204C1.52971 7.88718 0.25 9.22617 0.25 10.8585C0.25 12.5523 1.628 13.9303 3.32184 13.9303H15.4007C16.9396 13.9303 18.1916 12.6783 18.1916 11.1394C18.1916 9.60049 16.9396 8.34847 15.4007 8.34847Z" fill="#4148FF"/>
<path d="M4.96938 11.4902C4.68102 11.4902 4.40281 11.3732 4.22515 11.1771C4.12766 11.0695 3.96142 11.0614 3.85391 11.1588C3.74637 11.2563 3.73817 11.4225 3.83566 11.5301C4.1113 11.8342 4.53513 12.0158 4.96941 12.0158C5.4928 12.0158 5.94891 11.6716 6.03039 11.2152C6.0922 10.869 5.93129 10.4153 5.29432 10.1804C4.95137 10.0539 4.63294 9.91589 4.54835 9.87874C4.47041 9.82054 4.43274 9.72838 4.44704 9.62868C4.46544 9.50039 4.56499 9.39712 4.71329 9.35245C5.13271 9.22615 5.51323 9.52958 5.52301 9.53747C5.63409 9.62998 5.79925 9.61537 5.89232 9.50456C5.98571 9.39348 5.97138 9.22769 5.86026 9.13427C5.83608 9.11391 5.25967 8.63881 4.56166 8.84913C4.21755 8.95279 3.97425 9.22286 3.92673 9.55397C3.88237 9.86283 4.01619 10.1599 4.27593 10.3293C4.28753 10.3369 4.29972 10.3435 4.31237 10.3492C4.32786 10.3561 4.69678 10.5203 5.11239 10.6736C5.39903 10.7793 5.54502 10.943 5.51292 11.1228C5.48068 11.3034 5.26853 11.4902 4.96938 11.4902Z" fill="#4148FF"/>
<path d="M13.0748 11.4902C12.7864 11.4902 12.5083 11.3732 12.3306 11.1771C12.2331 11.0695 12.0669 11.0614 11.9594 11.1588C11.8518 11.2563 11.8436 11.4225 11.9411 11.5301C12.2168 11.8342 12.6406 12.0158 13.0748 12.0158C13.5982 12.0158 14.0544 11.6716 14.1359 11.2152C14.1977 10.869 14.0368 10.4153 13.3998 10.1804C13.0568 10.0539 12.7384 9.91589 12.6538 9.87874C12.5759 9.82054 12.5382 9.72838 12.5525 9.62868C12.5709 9.50039 12.6704 9.39712 12.8187 9.35245C13.2387 9.22605 13.6197 9.53039 13.6285 9.5375C13.7396 9.62998 13.9046 9.61537 13.9978 9.50456C14.0911 9.39348 14.0768 9.22769 13.9657 9.13427C13.9415 9.11391 13.3651 8.63881 12.6671 8.84913C12.323 8.95279 12.0797 9.22286 12.0322 9.55397C11.9878 9.86283 12.1217 10.1599 12.3814 10.3293C12.393 10.3369 12.4052 10.3435 12.4178 10.3491C12.4333 10.356 12.8022 10.5202 13.2179 10.6735C13.5045 10.7793 13.6505 10.943 13.6184 11.1228C13.5861 11.3034 13.374 11.4902 13.0748 11.4902Z" fill="#4148FF"/>
<path d="M11.0828 12.0255C11.2279 12.0255 11.3456 11.9079 11.3456 11.7627V9.90655C11.3456 9.76141 11.2279 9.64374 11.0828 9.64374C10.9376 9.64374 10.8199 9.76141 10.8199 9.90655V9.90705C10.6573 9.8091 10.4669 9.75265 10.2636 9.75265C9.66701 9.75265 9.18164 10.238 9.18164 10.8346C9.18164 11.4312 9.66701 11.9166 10.2636 11.9166C10.4669 11.9166 10.6573 11.8601 10.8199 11.7622V11.7627C10.8199 11.9079 10.9376 12.0255 11.0828 12.0255ZM10.2636 11.391C9.95685 11.391 9.70727 11.1414 9.70727 10.8346C9.70727 10.5279 9.95685 10.2783 10.2636 10.2783C10.5704 10.2783 10.8199 10.5279 10.8199 10.8346C10.8199 11.1414 10.5704 11.391 10.2636 11.391Z" fill="#4148FF"/>
<path d="M8.42455 12.0255C8.56973 12.0255 8.68737 11.9078 8.68737 11.7626V9.90649C8.68737 9.76135 8.56973 9.64368 8.42455 9.64368C8.27937 9.64368 8.16173 9.76135 8.16173 9.90649V9.90698C7.99907 9.80904 7.80872 9.75259 7.6054 9.75259C7.00881 9.75259 6.52344 10.238 6.52344 10.8346C6.52344 11.4311 7.00881 11.9165 7.6054 11.9165C7.80872 11.9165 7.99907 11.8601 8.16173 11.7621V11.7626C8.16173 11.9078 8.27937 12.0255 8.42455 12.0255ZM7.6054 11.3909C7.29864 11.3909 7.04907 11.1413 7.04907 10.8346C7.04907 10.5278 7.29864 10.2783 7.6054 10.2783C7.91216 10.2783 8.16173 10.5278 8.16173 10.8346C8.16173 11.1413 7.91216 11.3909 7.6054 11.3909Z" fill="#4148FF"/>
</g>
<defs>
<clipPath id="clip0_707_4288">
<rect width="17.9416" height="17.9416" fill="white" transform="translate(0.25 0.0618286)"/>
</clipPath>
</defs>
</svg>
