<svg width="27" height="32" viewBox="0 0 27 32" fill="none" xmlns="http://www.w3.org/2000/svg">
<path d="M9.24278 20.2365C9.28444 19.9548 9.27932 18.5068 9.24278 17.9415C9.1626 16.6993 8.67085 15.0613 9.28444 14.6003C9.7137 14.2781 10.7418 14.1892 12.3823 14.1892C13.8241 14.1892 15.8041 13.6122 16.5704 14.3792C16.9772 14.7866 17.2157 20.2508 16.7912 20.57C15.5609 21.4937 12.2782 21.2329 10.8301 21.2329" stroke="#4148FF" stroke-width="2" stroke-linecap="round" stroke-linejoin="round"/>
<path d="M11.0742 13.1003C11.4971 9.13703 14.6099 9.8138 14.6099 13.1003" stroke="#4148FF" stroke-width="2" stroke-linecap="round" stroke-linejoin="round"/>
<path d="M13.2246 18.3845C13.2246 18.2244 13.2246 18.0642 13.2246 17.9041" stroke="#4148FF" stroke-width="2" stroke-linecap="round" stroke-linejoin="round"/>
<path d="M9.66879 28.9122C6.86257 26.8081 0.126111 15.6847 2.18917 9.77327C2.31368 9.41662 9.79539 6.37185 13.2015 1.5708C17.0051 7.04559 23.8895 9.55486 23.9836 9.77327C26.2259 14.9788 17.8885 28.2397 13.345 30.5143" stroke="#4148FF" stroke-width="2" stroke-linecap="round" stroke-linejoin="round"/>
</svg>
