<svg width="28" height="28" viewBox="0 0 28 28" fill="none" xmlns="http://www.w3.org/2000/svg">
<g clip-path="url(#clip0_707_4210)">
<path d="M25.3725 5.83434C25.649 5.45508 25.8128 4.98859 25.8128 4.48438C25.8128 3.21787 24.7824 2.1875 23.5159 2.1875C23.0117 2.1875 22.5452 2.35123 22.1659 2.62773C19.7778 0.907484 16.9643 0 14 0C11.0921 0 8.30364 0.883313 5.93595 2.5544C5.6892 2.72858 5.63035 3.06977 5.80453 3.31658C5.97871 3.56333 6.31996 3.62217 6.56671 3.44799C8.14827 2.33171 9.93398 1.5972 11.8177 1.27723C11.5985 1.5558 11.3782 1.89109 11.1608 2.29491C10.4973 3.52751 9.94979 5.22495 9.56813 7.22542C8.56406 7.29761 7.73691 8.01752 7.50362 8.96875H2.11132C2.42916 8.21849 2.8192 7.49623 3.27955 6.81116C3.44799 6.56048 3.38127 6.2207 3.13059 6.05227C2.8799 5.88377 2.54012 5.95049 2.37169 6.20118C0.820094 8.5103 0 11.2071 0 14C0 16.9632 0.907539 19.7775 2.62757 22.1659C2.35118 22.5451 2.1875 23.0115 2.1875 23.5156C2.1875 24.7821 3.21787 25.8125 4.48438 25.8125C4.98854 25.8125 5.45497 25.6488 5.83417 25.3724C8.22248 27.0925 11.0365 28 14 28C17.7395 28 21.2552 26.5437 23.8995 23.8995C26.5437 21.2553 28 17.7395 28 14C28 11.036 27.0926 8.22254 25.3725 5.83434ZM26.2912 17.9375H20.4595C20.2722 17.1738 19.7022 16.5593 18.965 16.3092C19.0082 15.5495 19.0312 14.7754 19.0312 14C19.0312 12.6478 18.9657 11.3247 18.8395 10.0626H26.298C26.6998 11.3201 26.9062 12.6429 26.9062 14C26.9062 15.3727 26.69 16.6956 26.2912 17.9375ZM14 26.9062C13.0837 26.9062 12.0923 25.573 11.3479 23.3399C10.9307 22.0881 10.6079 20.6259 10.3901 19.0313H15.9983C16.1734 19.7452 16.6828 20.329 17.3507 20.6065C16.5187 24.9533 15.0842 26.9062 14 26.9062ZM4.48438 21.2188C4.11868 21.2188 3.77289 21.3051 3.46571 21.4578C2.9219 20.6922 2.46827 19.8799 2.1082 19.0312H9.28736C9.51464 20.7521 9.85955 22.3337 10.3102 23.6857C10.7436 24.9858 11.2482 26.0029 11.8104 26.7226C9.91605 26.4013 8.12859 25.6612 6.54221 24.5343C6.6949 24.2271 6.78125 23.8813 6.78125 23.5156C6.78125 22.2491 5.75088 21.2188 4.48438 21.2188ZM10.0625 14C10.0625 13.2538 10.0844 12.5092 10.1254 11.7785C11.0264 11.6231 11.7491 10.9416 11.9647 10.0625H17.7405C17.8701 11.3199 17.9375 12.6437 17.9375 14C17.9375 14.7437 17.9157 15.4861 17.8749 16.2148C16.9566 16.3575 16.2169 17.0463 15.9983 17.9375H10.2595C10.1299 16.6802 10.0625 15.3564 10.0625 14ZM18.2289 19.6875C17.5655 19.6875 17.0258 19.1478 17.0258 18.4844C17.0258 17.821 17.5655 17.2812 18.2289 17.2812C18.8923 17.2812 19.4321 17.821 19.4321 18.4844C19.4321 19.1478 18.8923 19.6875 18.2289 19.6875ZM17.6898 4.3143C17.2564 3.0141 16.7517 1.99702 16.1895 1.27734C18.0842 1.59863 19.8716 2.33855 21.4581 3.46566C21.3054 3.77289 21.219 4.11868 21.219 4.48438C21.219 5.75088 22.2494 6.78125 23.5159 6.78125C23.8816 6.78125 24.2273 6.6949 24.5346 6.54227C25.0784 7.30778 25.5319 8.12022 25.8919 8.96881H18.7126C18.4854 7.2479 18.1404 5.66634 17.6898 4.3143ZM24.719 4.48438C24.719 5.14779 24.1793 5.6875 23.5159 5.6875C22.8525 5.6875 22.3128 5.14779 22.3128 4.48438C22.3128 3.82096 22.8525 3.28125 23.5159 3.28125C24.1793 3.28125 24.719 3.82096 24.719 4.48438ZM14 1.09375C14.9163 1.09375 15.9077 2.42698 16.6521 4.66014C17.0693 5.91188 17.3921 7.37417 17.6099 8.96875H11.9648C11.7926 8.26705 11.2976 7.69114 10.6465 7.40819C11.4778 3.05134 12.9137 1.09375 14 1.09375ZM9.73416 8.31256C10.3976 8.31256 10.9373 8.85227 10.9373 9.51568C10.9373 10.1791 10.3976 10.7188 9.73416 10.7188C9.07074 10.7188 8.53103 10.1791 8.53103 9.51568C8.53103 8.85227 9.07074 8.31256 9.73416 8.31256ZM7.50362 10.0626C7.69398 10.8387 8.27958 11.4611 9.03427 11.7031C8.99161 12.4588 8.96875 13.2287 8.96875 14C8.96875 15.3523 9.03427 16.6754 9.16054 17.9375H1.70226C1.30036 16.6797 1.09375 15.3569 1.09375 14C1.09375 12.6501 1.30184 11.3248 1.70554 10.0626H7.50362ZM3.28125 23.5156C3.28125 22.8522 3.82096 22.3125 4.48438 22.3125C5.14779 22.3125 5.6875 22.8522 5.6875 23.5156C5.6875 24.179 5.14779 24.7188 4.48438 24.7188C3.82096 24.7188 3.28125 24.179 3.28125 23.5156ZM16.1841 26.7205C16.4014 26.4441 16.6198 26.112 16.8353 25.7125C17.5008 24.4789 18.05 22.7776 18.4325 20.7717C19.4197 20.6846 20.2292 19.9706 20.4595 19.0312H25.885C24.1944 23.0099 20.5619 25.9711 16.1841 26.7205Z" fill="#4148FF"/>
<path d="M4.37891 5.1438C4.52334 5.1438 4.66383 5.08583 4.76609 4.98356C4.86781 4.88185 4.92578 4.74075 4.92578 4.59692C4.92578 4.4531 4.86781 4.31255 4.76609 4.21028C4.66383 4.10856 4.52334 4.05005 4.37891 4.05005C4.23508 4.05005 4.09398 4.10856 3.99232 4.21028C3.8906 4.31255 3.83203 4.4531 3.83203 4.59692C3.83203 4.74075 3.89055 4.88185 3.99232 4.98356C4.09398 5.08583 4.23508 5.1438 4.37891 5.1438Z" fill="#4148FF"/>
</g>
<defs>
<clipPath id="clip0_707_4210">
<rect width="28" height="28" fill="white"/>
</clipPath>
</defs>
</svg>
