<svg width="32" height="32" fill="none" xmlns="http://www.w3.org/2000/svg"><g clip-path="url('#clip0_707_4113')"><path fill-rule="evenodd" clip-rule="evenodd" d="M31.304 30.065H.696a.696.696 0 0 1 0-1.392h30.608a.695.695 0 1 1 0 1.392Zm-20.87-6.957a.696.696 0 0 1 0 1.391H4.87a.696.696 0 0 1 0-1.39h.695v-9.044H4.87a.696.696 0 0 1 0-1.392h5.565a.696.696 0 0 1 0 1.392h-.696v9.043h.696Zm-2.086-9.043H6.957v9.043h1.39v-9.043Zm10.435 9.043a.696.696 0 1 1 0 1.391h-5.566a.696.696 0 0 1 0-1.39h.696v-9.044h-.696a.696.696 0 0 1 0-1.392h5.566a.695.695 0 1 1 0 1.392h-.696v9.043h.696Zm-2.087-9.043h-1.392v9.043h1.392v-9.043Zm13.217 12.521a.696.696 0 0 1-.696.696H2.783a.696.696 0 0 1 0-1.391h26.434a.696.696 0 0 1 .696.695Zm-2.783-3.478a.696.696 0 1 1 0 1.391h-5.565a.696.696 0 0 1 0-1.39h.696v-9.044h-.696a.696.696 0 0 1 0-1.392h5.565a.695.695 0 1 1 0 1.392h-.695v9.043h.695Zm-2.086-9.043h-1.392v9.043h1.392v-9.043ZM1.39 9.89 16 1.934 30.609 9.89v1.391H1.39V9.891Zm26.116 0L16 3.94 4.452 9.891h23.055Z" fill="#4148FF"/></g><defs><clipPath id="clip0_707_4113"><path fill="#fff" d="M0 0h32v32H0z"/></clipPath></defs></svg>