<svg width="32" height="32" fill="none" xmlns="http://www.w3.org/2000/svg"><g clip-path="url('#clip0_707_4146')"><path d="M29.753.049 16.533 3.63c-.336.09-1.066.089-1.4-.005L2.253.055C1.104-.26-.01.569-.01 1.753v24.316c0 1.003.76 1.962 1.728 2.232l12.88 3.57c.345.096.788.149 1.248.149.315 0 .781-.024 1.21-.142l13.22-3.581c.971-.262 1.734-1.22 1.734-2.227V1.752C32.011.569 30.898-.262 29.753.049ZM15 29.904 2.221 26.37c-.096-.026-.232-.203-.232-.303V2.067l12.608 3.486c.122.034.26.061.402.083v24.269l.001-.001Zm15.01-3.836c0 .099-.162.27-.258.297L17 29.819V5.572c.018-.005.038-.007.056-.012L30.01 2.056l.001 24.012Zm-9.948-14.621a.98.98 0 0 0 .272-.037l6.998-1.97a1 1 0 1 0-.542-1.926l-6.998 1.97a1 1 0 0 0 .27 1.963Zm.001 6c.09 0 .182-.012.272-.037l6.998-1.97a1 1 0 1 0-.542-1.927l-6.998 1.97a1 1 0 0 0 .27 1.963Zm0 6c.09 0 .182-.012.272-.037l6.998-1.97a1 1 0 0 0-.542-1.926l-6.998 1.97a1 1 0 0 0 .27 1.963Zm-7.73-13.963-6.999-1.97a1.001 1.001 0 0 0-.542 1.926l6.998 1.97a1 1 0 1 0 .54-1.926h.002Zm0 6-6.999-1.97a1 1 0 0 0-.542 1.927l6.998 1.97a1 1 0 1 0 .54-1.927h.002Zm0 6-6.999-1.97a1.001 1.001 0 0 0-.542 1.926l6.998 1.97a1 1 0 1 0 .54-1.927h.002Z" fill="#4148FF"/></g><defs><clipPath id="clip0_707_4146"><path fill="#fff" d="M0 0h32v32H0z"/></clipPath></defs></svg>