<svg width="32" height="32" viewBox="0 0 32 32" fill="none" xmlns="http://www.w3.org/2000/svg">
<g clip-path="url('#clip0_707_4146')">
<path d="M29.7532 0.0489474L16.5332 3.62995C16.1972 3.71995 15.4672 3.71895 15.1332 3.62495L2.25323 0.0559474C1.10423 -0.261053 -0.00976562 0.567947 -0.00976562 1.75195V26.0679C-0.00976562 27.0709 0.750234 28.0299 1.71823 28.2999L14.5982 31.8699C14.9432 31.9659 15.3862 32.0189 15.8462 32.0189C16.1612 32.0189 16.6272 31.9949 17.0562 31.8769L30.2762 28.2959C31.2472 28.0339 32.0102 27.0759 32.0102 26.0689V1.75195C32.0112 0.568947 30.8982 -0.262053 29.7532 0.0489474ZM15.0002 29.9039L2.22123 26.3709C2.12523 26.3449 1.98923 26.1679 1.98923 26.0679V2.06695L14.5972 5.55295C14.7192 5.58695 14.8562 5.61395 14.9992 5.63595V29.9049L15.0002 29.9039ZM30.0102 26.0679C30.0102 26.1669 29.8482 26.3379 29.7522 26.3649L16.9992 29.8189V5.57195C17.0172 5.56695 17.0372 5.56495 17.0552 5.55995L30.0092 2.05595L30.0102 26.0679ZM20.0622 11.4469C20.1522 11.4469 20.2442 11.4359 20.3342 11.4099L27.3322 9.43995C27.8642 9.28995 28.1742 8.73795 28.0242 8.20595C27.8742 7.67395 27.3192 7.36595 26.7902 7.51395L19.7922 9.48395C19.2602 9.63395 18.9502 10.1859 19.1002 10.7179C19.2242 11.1589 19.6252 11.4469 20.0622 11.4469ZM20.0632 17.4469C20.1532 17.4469 20.2452 17.4349 20.3352 17.4099L27.3332 15.4399C27.8652 15.2899 28.1752 14.7379 28.0252 14.2059C27.8752 13.6739 27.3202 13.3659 26.7912 13.5129L19.7932 15.4829C19.2612 15.6329 18.9512 16.1849 19.1012 16.7159C19.2252 17.1579 19.6262 17.4459 20.0632 17.4459V17.4469ZM20.0632 23.4469C20.1532 23.4469 20.2452 23.4349 20.3352 23.4099L27.3332 21.4399C27.8652 21.2889 28.1752 20.7379 28.0252 20.2059C27.8752 19.6739 27.3202 19.3659 26.7912 19.5139L19.7932 21.4839C19.2612 21.6349 18.9512 22.1859 19.1012 22.7179C19.2252 23.1589 19.6262 23.4469 20.0632 23.4469ZM12.3322 9.48395L5.33423 7.51395C4.80523 7.36695 4.25023 7.67495 4.10023 8.20595C3.95023 8.73695 4.26023 9.28895 4.79223 9.43995L11.7902 11.4099C11.8802 11.4349 11.9712 11.4469 12.0612 11.4469C12.4982 11.4469 12.8992 11.1589 13.0232 10.7179C13.1722 10.1869 12.8632 9.63495 12.3302 9.48395H12.3322ZM12.3322 15.4839L5.33423 13.5139C4.80523 13.3659 4.25023 13.6749 4.10023 14.2069C3.95023 14.7389 4.26023 15.2899 4.79223 15.4409L11.7902 17.4109C11.8802 17.4369 11.9712 17.4479 12.0612 17.4479C12.4982 17.4479 12.8992 17.1599 13.0232 16.7179C13.1722 16.1869 12.8632 15.6349 12.3302 15.4839H12.3322ZM12.3322 21.4839L5.33423 19.5139C4.80523 19.3659 4.25023 19.6749 4.10023 20.2059C3.95023 20.7369 4.26023 21.2889 4.79223 21.4399L11.7902 23.4099C11.8802 23.4359 11.9712 23.4469 12.0612 23.4469C12.4982 23.4469 12.8992 23.1589 13.0232 22.7169C13.1722 22.1849 12.8632 21.6339 12.3302 21.4829L12.3322 21.4839Z" fill="#4148FF"></path>
</g>
<defs>
<clipPath id="clip0_707_4146">
<rect width="32" height="32" fill="white"></rect>
</clipPath>
</defs>
</svg>
