<svg width="32" height="32" fill="none" xmlns="http://www.w3.org/2000/svg"><g clip-path="url('#clip0_707_4184')" fill="#4148FF"><path d="M31.938 17.478a12.65 12.65 0 0 0-3.635-7.672 12.551 12.551 0 0 0-6.174-3.39V4.829a2.129 2.129 0 0 0 1.612-2.062A2.127 2.127 0 0 0 21.616.641h-4.5a2.127 2.127 0 0 0-2.125 2.125c0 .995.687 1.832 1.612 2.062v1.593a12.55 12.55 0 0 0-6.155 3.386c-.384.383-.737.786-1.061 1.204l-.048-.002H4.886a.625.625 0 0 0 0 1.25h3.65a12.53 12.53 0 0 0-1.109 2.402H.625a.625.625 0 0 0 0 1.25h6.45c-.181.79-.284 1.595-.311 2.402H4a.625.625 0 0 0 0 1.25h2.784c.053.81.183 1.614.39 2.403H3.125a.625.625 0 0 0 0 1.25h4.448a12.552 12.552 0 0 0 2.875 4.445 12.648 12.648 0 0 0 8.918 3.698c2.439 0 4.847-.706 6.89-2.037a.625.625 0 1 0-.682-1.047c-4.473 2.912-10.462 2.283-14.242-1.497-4.435-4.436-4.435-11.652 0-16.087 4.435-4.436 11.651-4.436 16.087 0 3.775 3.775 4.408 9.76 1.505 14.23a.625.625 0 0 0 1.049.68 12.665 12.665 0 0 0 1.965-8.123ZM16.241 2.766c0-.482.392-.875.875-.875h4.5a.876.876 0 0 1 0 1.75h-4.5a.876.876 0 0 1-.875-.875Zm1.612 3.44V4.891h3.026v1.313a12.735 12.735 0 0 0-3.026.002Z"/><path d="M27.861 26.594a.628.628 0 0 0-.625.625.627.627 0 0 0 .625.625.628.628 0 0 0 .625-.625.63.63 0 0 0-.625-.625ZM19.375 9.038c-5.346 0-9.695 4.35-9.695 9.696s4.35 9.696 9.695 9.696c5.347 0 9.696-4.35 9.696-9.696s-4.35-9.696-9.696-9.696Zm0 18.142c-4.657 0-8.445-3.79-8.445-8.446 0-4.657 3.788-8.446 8.445-8.446s8.446 3.789 8.446 8.446-3.789 8.446-8.446 8.446Z"/><path d="m23.328 13.896-3.095 3.096a1.93 1.93 0 0 0-1.716 0l-1.386-1.385a.625.625 0 0 0-.884.884l1.386 1.385a1.944 1.944 0 0 0 1.742 2.8 1.944 1.944 0 0 0 1.742-2.8l3.004-3.005.091-.09a.625.625 0 0 0-.884-.885Zm-3.953 5.53a.693.693 0 1 1 .001-1.386.693.693 0 0 1-.001 1.386ZM26.058 18.116h-.58a.625.625 0 0 0 0 1.25h.58a.625.625 0 0 0 0-1.25ZM13.272 18.101h-.579a.625.625 0 1 0 0 1.25h.58a.625.625 0 0 0 0-1.25ZM19.383 13.255c.345 0 .625-.28.625-.625v-.579a.625.625 0 0 0-1.25 0v.58c0 .345.28.624.625.624ZM19.367 24.212a.625.625 0 0 0-.625.625v.58a.625.625 0 0 0 1.25 0v-.58a.625.625 0 0 0-.625-.625ZM.625 21.965A.63.63 0 0 0 0 22.59a.628.628 0 0 0 .625.625.63.63 0 0 0 .625-.625.63.63 0 0 0-.625-.625Z"/></g><defs><clipPath id="clip0_707_4184"><path fill="#fff" d="M0 0h32v32H0z"/></clipPath></defs></svg>