<svg width="19" height="19" viewBox="0 0 19 19" fill="none" xmlns="http://www.w3.org/2000/svg">
<g clip-path="url('#clip0_707_4266')">
<path d="M2.86523 13.2103V16.5601C2.86523 17.3557 3.51251 18.003 4.30811 18.003H8.04521C8.23871 18.003 8.39562 17.8461 8.39562 17.6526C8.39562 17.459 8.23871 17.3022 8.04521 17.3022H4.30811C3.89894 17.3022 3.56605 16.9693 3.56605 16.5601V13.2103C3.56605 12.8012 3.89894 12.4683 4.30811 12.4683H14.7124C15.1216 12.4683 15.4544 12.8012 15.4544 13.2103V16.5601C15.4544 16.9693 15.1216 17.3022 14.7124 17.3022H11.1284C10.9349 17.3022 10.778 17.459 10.778 17.6526C10.778 17.8461 10.9349 18.003 11.1284 18.003H14.7124C15.508 18.003 16.1553 17.3557 16.1553 16.5601V13.2103C16.1553 12.4147 15.508 11.7675 14.7124 11.7675H11.2166C11.2258 11.7433 11.2346 11.7187 11.242 11.6936L11.4157 11.1059C11.4731 10.9113 11.6911 10.7942 11.901 10.8449L12.5176 10.994C12.9885 11.108 13.4882 10.9029 13.7329 10.4952L14.4067 9.37257C14.6571 8.95656 14.5895 8.42542 14.2423 8.08093L13.8 7.64187C13.6596 7.50142 13.6583 7.27601 13.7998 7.13556L14.2422 6.69699C14.5895 6.35244 14.6571 5.82129 14.4069 5.40574L13.7329 4.28268C13.4882 3.87498 12.9884 3.66992 12.5178 3.78381L11.9012 3.93266C11.6908 3.98354 11.4731 3.86647 11.4157 3.67189L11.2419 3.08373C11.1063 2.62792 10.6717 2.30957 10.1849 2.30957H8.83591C8.34849 2.30957 7.9137 2.62802 7.77837 3.0845L7.60524 3.67168C7.54756 3.86633 7.32968 3.9834 7.11933 3.93266L6.50299 3.78388C6.03219 3.66985 5.53226 3.87495 5.28796 4.28268L4.6143 5.40507C4.3634 5.82097 4.43079 6.35223 4.77843 6.6972L5.22064 7.13525C5.29023 7.20442 5.32857 7.29454 5.3285 7.38905C5.32843 7.48324 5.29023 7.57301 5.22089 7.64176L4.77818 8.08086C4.43082 8.42559 4.3634 8.95684 4.61391 9.37211L5.28778 10.4949C5.53219 10.9029 6.03173 11.1081 6.50285 10.994L7.11901 10.8449C7.32936 10.7942 7.54753 10.9115 7.60506 11.1058L7.77848 11.6938C7.78591 11.7189 7.7946 11.7433 7.80378 11.7675H4.30811C3.51251 11.7675 2.86523 12.4147 2.86523 13.2103ZM7.22221 10.1318C7.13397 10.1318 7.04427 10.1421 6.95464 10.1637L6.33792 10.3129C6.1618 10.3556 5.97731 10.2823 5.8888 10.1346L5.21437 9.01084C5.12964 8.87036 5.15273 8.69656 5.27177 8.5784L5.71437 8.13941C5.91729 7.93817 6.02914 7.67186 6.02931 7.38947C6.02949 7.10676 5.91771 6.83996 5.71423 6.63774L5.27184 6.19952C5.15277 6.08133 5.12964 5.90752 5.21479 5.76638L5.88894 4.64308C5.97728 4.49559 6.1618 4.42228 6.3382 4.46503L6.95481 4.61389C7.53176 4.75325 8.11242 4.4267 8.27725 3.87029L8.45039 3.28318C8.49797 3.12255 8.6565 3.01039 8.83584 3.01039H10.1849C10.3638 3.01039 10.5222 3.12269 10.5699 3.2829L10.7435 3.87043C10.9078 4.42674 11.4886 4.75325 12.0656 4.61389L12.6824 4.46496C12.8583 4.42239 13.0433 4.49566 13.1319 4.64329L13.8062 5.76677C13.8909 5.90738 13.8677 6.08126 13.7487 6.19934L13.3062 6.63795C12.8925 7.04852 12.8922 7.72919 13.3064 8.13948L13.7486 8.5783C13.8677 8.69649 13.8908 8.8704 13.8059 9.01144L13.1319 10.1345C13.0433 10.2821 12.8584 10.3554 12.6823 10.3128L12.0654 10.1635C11.4882 10.0247 10.9077 10.3514 10.7435 10.9073L10.5701 11.4943C10.5222 11.6551 10.3638 11.7674 10.1849 11.7674H8.83584C8.6565 11.7674 8.49797 11.6553 8.45053 11.4951L8.27711 10.9071C8.1381 10.4377 7.70213 10.1318 7.22221 10.1318Z" fill="#4148FF"></path>
<path d="M11.6426 16.3421L11.9304 14.7476L12.4053 16.3573C12.4065 16.3615 12.4079 16.3656 12.4092 16.3698C12.4661 16.5391 12.624 16.6526 12.8026 16.6526H12.8046C12.984 16.6517 13.1418 16.5365 13.1972 16.3659C13.1986 16.3618 13.1998 16.3577 13.201 16.3536L13.6594 14.7452L13.9653 16.3457C14.0017 16.5357 14.1852 16.6603 14.3753 16.6241C14.5654 16.5877 14.69 16.4042 14.6537 16.2141L14.1217 13.431C14.1215 13.4296 14.1212 13.4282 14.1209 13.4268C14.0833 13.2423 13.9258 13.106 13.7378 13.0954C13.5507 13.0849 13.3779 13.2024 13.3197 13.3814C13.3184 13.3855 13.3171 13.3896 13.3159 13.3937L12.7978 15.2113L12.2605 13.3901C12.2593 13.386 12.258 13.3818 12.2567 13.3777C12.1967 13.1992 12.023 13.0833 11.8356 13.0958C11.6477 13.1083 11.4915 13.2463 11.4558 13.4313C11.4555 13.4327 11.4553 13.434 11.4551 13.4354L10.9529 16.2176C10.9185 16.4081 11.0451 16.5903 11.2355 16.6247C11.4258 16.6592 11.6082 16.5326 11.6426 16.3421Z" fill="#4148FF"></path>
<path d="M6.16965 13.7955C6.38574 13.7955 6.59406 13.8591 6.77214 13.9794C6.93248 14.0877 7.15033 14.0456 7.25868 13.8852C7.36703 13.7249 7.32487 13.5071 7.16449 13.3987C6.87011 13.1998 6.52608 13.0947 6.16961 13.0947C5.18868 13.0947 4.39062 13.8927 4.39062 14.8737C4.39062 15.8546 5.18864 16.6526 6.16961 16.6526C6.56151 16.6526 6.91318 16.5239 7.18657 16.2803C7.24025 16.2325 7.29123 16.18 7.33808 16.124C7.46241 15.9757 7.44292 15.7547 7.2946 15.6304C7.14627 15.5061 6.9253 15.5255 6.80098 15.6739C6.77592 15.7038 6.74891 15.7317 6.72052 15.7569C6.57531 15.8863 6.38998 15.9518 6.16958 15.9518C5.57507 15.9518 5.09141 15.4682 5.09141 14.8737C5.09141 14.2792 5.57514 13.7955 6.16965 13.7955Z" fill="#4148FF"></path>
<path d="M10.3568 14.1874C10.3568 13.5848 9.8477 13.0945 9.22188 13.0945H8.46265C8.46251 13.0945 8.46233 13.0945 8.46219 13.0945C8.46205 13.0945 8.46188 13.0945 8.46174 13.0945C8.26824 13.0945 8.11133 13.2514 8.11133 13.4449V16.302C8.11133 16.4955 8.26824 16.6524 8.46174 16.6524C8.65523 16.6524 8.81214 16.4955 8.81214 16.302V15.4754L9.74339 16.5335C9.81266 16.6122 9.90934 16.6524 10.0066 16.6524C10.0888 16.6524 10.1714 16.6236 10.238 16.565C10.3832 16.4372 10.3974 16.2157 10.2695 16.0705L9.53626 15.2374C10.0096 15.1057 10.3568 14.685 10.3568 14.1874ZM9.22188 14.5795C9.12727 14.5795 8.9658 14.5802 8.81635 14.5809C8.81561 14.4347 8.81495 14.2781 8.81495 14.1874C8.81495 14.1098 8.81456 13.9481 8.81414 13.7953H9.22191C9.45725 13.7953 9.65607 13.9749 9.65607 14.1874C9.65603 14.4 9.45721 14.5795 9.22188 14.5795Z" fill="#4148FF"></path>
<path d="M11.709 7.3889C11.709 6.19744 10.7023 5.19083 9.51075 5.19083C8.31915 5.19083 7.3125 6.19744 7.3125 7.3889C7.3125 8.5806 8.31919 9.58736 9.51075 9.58736C10.7023 9.58736 11.709 8.5806 11.709 7.3889ZM8.01332 7.3889C8.01332 6.57732 8.69906 5.89168 9.51075 5.89164C10.3224 5.89164 11.0082 6.57729 11.0082 7.3889C11.0082 8.20069 10.3224 8.88654 9.51075 8.88654C8.69906 8.88654 8.01332 8.20073 8.01332 7.3889Z" fill="#4148FF"></path>
<path d="M9.8787 17.4581C9.77193 17.2995 9.55201 17.2557 9.39267 17.3614C9.23337 17.4671 9.19069 17.6885 9.29595 17.8471C9.40164 18.0064 9.62304 18.0491 9.78164 17.9438C9.94062 17.8383 9.98453 17.6167 9.8787 17.4581Z" fill="#4148FF"></path>
<path d="M16.9706 6.38022C16.6334 4.38398 15.539 2.63856 13.889 1.4655C12.239 0.292443 10.2311 -0.167958 8.23468 0.169274C6.23848 0.506507 4.49306 1.60094 3.31997 3.25094C2.14687 4.90094 1.68654 6.90899 2.02377 8.90519C2.09666 9.33658 2.20732 9.764 2.35277 10.1757C2.41721 10.3582 2.6174 10.4537 2.79989 10.3894C2.98235 10.3249 3.07805 10.1247 3.01357 9.94226C2.8815 9.56844 2.78101 9.18023 2.71485 8.78847C2.08306 5.04864 4.61164 1.4921 8.35144 0.860314C10.1631 0.554338 11.9855 0.972059 13.4829 2.03667C14.9803 3.10128 15.9735 4.68533 16.2796 6.49698C16.4279 7.37496 16.4034 8.27347 16.212 9.13618L15.9532 8.6558C15.8615 8.4854 15.6489 8.42177 15.4785 8.5135C15.3082 8.60528 15.2445 8.8178 15.3362 8.98817L16.0026 10.2251C16.0956 10.3975 16.3204 10.4601 16.4891 10.3608L17.6485 9.67714C17.8152 9.57885 17.8706 9.36401 17.7723 9.19732C17.674 9.03067 17.4591 8.97513 17.2925 9.07349L16.8909 9.3103C17.1064 8.35277 17.1353 7.35495 16.9706 6.38022Z" fill="#4148FF"></path>
</g>
<defs>
<clipPath id="clip0_707_4266">
<rect width="17.9416" height="17.9416" fill="white" transform="translate(0.898438 0.0615234)"></rect>
</clipPath>
</defs>
</svg>
