<svg width="19" height="19" fill="none" xmlns="http://www.w3.org/2000/svg"><g clip-path="url('#clip0_707_4266')" fill="#4148FF"><path d="M2.865 13.21v3.35c0 .796.648 1.443 1.443 1.443h3.737a.35.35 0 0 0 0-.7H4.308a.743.743 0 0 1-.742-.743v-3.35c0-.409.333-.742.742-.742h10.404c.41 0 .742.333.742.742v3.35c0 .41-.332.742-.742.742h-3.584a.35.35 0 1 0 0 .701h3.584c.796 0 1.443-.647 1.443-1.443v-3.35c0-.795-.647-1.443-1.443-1.443h-3.495a1.02 1.02 0 0 0 .025-.073l.174-.588c.057-.195.275-.312.485-.261l.617.149c.47.114.97-.091 1.215-.499l.674-1.122c.25-.416.182-.948-.165-1.292l-.442-.44a.356.356 0 0 1 0-.505l.442-.439c.347-.345.415-.876.165-1.291l-.674-1.123a1.119 1.119 0 0 0-1.215-.5l-.617.15c-.21.05-.428-.067-.485-.261l-.174-.588a1.102 1.102 0 0 0-1.057-.774h-1.35c-.487 0-.921.318-1.057.774l-.173.588c-.057.194-.275.311-.486.26l-.616-.148c-.47-.114-.97.091-1.215.499l-.674 1.122c-.25.416-.183.947.164 1.292l.443.438a.355.355 0 0 1 0 .507l-.443.439a1.051 1.051 0 0 0-.164 1.291l.674 1.123c.244.408.744.613 1.215.499l.616-.15c.21-.05.429.068.486.262l.173.588.026.073H4.308c-.795 0-1.443.648-1.443 1.443Zm4.357-3.078c-.088 0-.178.01-.267.032l-.617.149a.411.411 0 0 1-.45-.178L5.215 9.01a.348.348 0 0 1 .058-.433l.442-.439a1.05 1.05 0 0 0 0-1.501L5.272 6.2a.348.348 0 0 1-.057-.434l.674-1.123a.411.411 0 0 1 .45-.178l.616.149a1.1 1.1 0 0 0 1.322-.744l.173-.587a.397.397 0 0 1 .386-.273h1.349c.179 0 .337.113.385.273l.173.587a1.1 1.1 0 0 0 1.323.744l.616-.149c.176-.043.361.03.45.178l.674 1.124a.348.348 0 0 1-.057.432l-.443.439a1.063 1.063 0 0 0 0 1.501l.443.44c.119.117.142.291.057.432l-.674 1.123a.412.412 0 0 1-.45.179l-.617-.15a1.1 1.1 0 0 0-1.322.744l-.173.587a.398.398 0 0 1-.385.273h-1.35a.397.397 0 0 1-.384-.272l-.174-.588a1.094 1.094 0 0 0-1.055-.775Z"/><path d="m11.643 16.342.287-1.594.475 1.61.004.012c.057.17.215.283.394.283h.002c.179-.001.337-.116.392-.287l.004-.012.458-1.609.306 1.6a.35.35 0 0 0 .689-.13l-.532-2.784-.001-.004a.415.415 0 0 0-.801-.046l-.004.013-.518 1.817-.537-1.82a.416.416 0 0 0-.805.045l-.503 2.782a.35.35 0 0 0 .69.124ZM6.17 13.796c.216 0 .424.063.602.183a.35.35 0 0 0 .392-.58 1.781 1.781 0 0 0-2.774 1.475c0 .98.799 1.779 1.78 1.779a1.5 1.5 0 0 0 1.168-.529.35.35 0 1 0-.537-.45.8.8 0 0 1-.631.278 1.08 1.08 0 0 1 0-2.156ZM10.357 14.187c0-.602-.51-1.092-1.135-1.092h-.76a.35.35 0 0 0-.35.35v2.857a.35.35 0 0 0 .7 0v-.827l.931 1.059a.35.35 0 0 0 .495.031.35.35 0 0 0 .032-.495l-.734-.833c.474-.131.82-.552.82-1.05Zm-1.135.393h-.406a94.071 94.071 0 0 1-.002-.785h.408c.235 0 .434.18.434.392 0 .213-.199.393-.434.393ZM11.709 7.389c0-1.192-1.007-2.198-2.198-2.198-1.192 0-2.198 1.006-2.198 2.198S8.319 9.587 9.51 9.587c1.191 0 2.198-1.006 2.198-2.198Zm-3.696 0c0-.812.686-1.497 1.498-1.497.811 0 1.497.685 1.497 1.497s-.686 1.498-1.497 1.498a1.518 1.518 0 0 1-1.498-1.498ZM9.879 17.458a.354.354 0 0 0-.486-.097.354.354 0 0 0-.097.486c.106.16.327.202.486.097a.353.353 0 0 0 .097-.486Z"/><path d="M16.97 6.38a7.53 7.53 0 0 0-3.081-4.914A7.53 7.53 0 0 0 8.235.169 7.53 7.53 0 0 0 3.32 3.251a7.53 7.53 0 0 0-1.296 5.654c.073.432.183.859.329 1.27a.35.35 0 0 0 .66-.233A6.886 6.886 0 0 1 8.352.86a6.834 6.834 0 0 1 5.132 1.177 6.834 6.834 0 0 1 2.797 4.46 6.897 6.897 0 0 1-.068 2.64l-.259-.481a.35.35 0 0 0-.617.332l.667 1.237a.354.354 0 0 0 .486.136l1.16-.684a.35.35 0 0 0-.357-.604l-.401.237a7.597 7.597 0 0 0 .08-2.93Z"/></g><defs><clipPath id="clip0_707_4266"><path fill="#fff" transform="translate(.898 .062)" d="M0 0h17.942v17.942H0z"/></clipPath></defs></svg>