<svg width="37" height="32" fill="none" xmlns="http://www.w3.org/2000/svg"><g clip-path="url('#clip0_707_4246')"><path d="M21.732 32h-7.92a1.938 1.938 0 0 1-1.666-.933L.258 11.122a1.813 1.813 0 0 1 0-1.865L4.21 2.63c.744-1.244 2.59-1.244 3.334 0l15.855 26.572C24.142 30.446 23.21 32 21.732 32Z" fill="#4148FF"/><path d="M23.774 14.48h8.374c1.479 0 2.41 1.554 1.666 2.797l-4.186 7.028c-.744 1.243-2.59 1.243-3.334 0l-4.187-7.028c-.743-1.243.188-2.797 1.667-2.797Z" fill="#01BD7E"/><path d="M35.075 9.613H18.65a1.938 1.938 0 0 1-1.667-.933l-3.506-5.883C12.733 1.554 13.664 0 15.143 0H31.57c.69 0 1.323.356 1.667.932l3.506 5.883c.744 1.244-.188 2.798-1.667 2.798Z" fill="#4148FF"/></g><defs><clipPath id="clip0_707_4246"><path fill="#fff" d="M0 0h37v32H0z"/></clipPath></defs></svg>