<svg width="32" height="32" fill="none" xmlns="http://www.w3.org/2000/svg"><g clip-path="url('#clip0_707_4090')" fill="#4148FF"><path d="M11.057 9.101H9.018a.891.891 0 0 1 0-1.782h1.966c.351.004.698.162.952.433a.941.941 0 0 0 1.374-1.287 3.226 3.226 0 0 0-2.315-1.028h-.016v-.836a.941.941 0 0 0-1.882 0v.836c-1.709 0-2.85 1.31-2.85 2.773a2.776 2.776 0 0 0 2.771 2.774h2.04a.891.891 0 0 1 0 1.781H8.914a1.348 1.348 0 0 1-.741-.251.94.94 0 1 0-1.074 1.546c.678.47 1.289.588 1.998.588v.836a.941.941 0 0 0 1.882 0v-.836c1.72 0 2.85-1.322 2.85-2.774a2.776 2.776 0 0 0-2.772-2.773Z"/><path d="M19.856 12.139C21.189 5.862 16.38 0 10.037 0 4.503 0 0 4.505 0 10.042c0 6.347 5.864 11.165 12.146 9.82C10.813 26.118 15.6 32 21.963 32 27.497 32 32 27.495 32 21.958c0-6.345-5.863-11.167-12.144-9.82ZM1.882 10.042c0-4.499 3.659-8.16 8.155-8.16 5.662 0 9.62 5.672 7.652 10.99a10.103 10.103 0 0 0-4.813 4.822c-5.314 1.978-10.994-1.978-10.994-7.652Zm20.08 20.076c-4.496 0-8.154-3.66-8.154-8.16s3.658-8.16 8.155-8.16c4.496 0 8.155 3.66 8.155 8.16s-3.659 8.16-8.155 8.16Z"/><path d="M25.173 25.258a9.714 9.714 0 0 0-4.04-.396c.19-.585.325-1.186.403-1.795h1.127a.941.941 0 0 0 0-1.883h-1.071c-.02-.297-.031-.382-.111-1.11-.132-1.204 1.363-1.848 2.155-.955a.941.941 0 1 0 1.409-1.25c-1.998-2.252-5.768-.619-5.435 2.411.085.775.078.705.094.904h-.67a.941.941 0 0 0 0 1.883h.6a7.941 7.941 0 0 1-.91 2.63c-.407.73.272 1.59 1.076 1.364 1.594-.449 3.08-.556 4.804-.01a.941.941 0 1 0 .57-1.793ZM23.371 2.96c1.844 0 3.804 1.393 3.804 3.974v.886l-.847-.848a.941.941 0 0 0-1.332 1.33l2.455 2.456a.942.942 0 0 0 1.331 0l2.455-2.456a.941.941 0 0 0-1.332-1.33l-.847.848v-.886c0-3.425-2.602-5.856-5.687-5.856a.941.941 0 1 0 0 1.882ZM8.626 29.04c-1.845 0-3.805-1.392-3.805-3.973v-.887l.848.849A.941.941 0 0 0 7 23.698l-2.454-2.456a.943.943 0 0 0-1.331 0L.76 23.698a.941.941 0 1 0 1.331 1.33l.848-.848v.887c0 3.424 2.601 5.856 5.687 5.856a.941.941 0 0 0 0-1.883Z"/></g><defs><clipPath id="clip0_707_4090"><path fill="#fff" d="M0 0h32v32H0z"/></clipPath></defs></svg>