<svg width="32" height="32" fill="none" xmlns="http://www.w3.org/2000/svg"><g clip-path="url('#clip0_707_4221')"><mask id="mask0_707_4221" style="mask-type:luminance" maskUnits="userSpaceOnUse" x="0" y="0" width="32" height="32"><path d="M0 0h32v32H0V0Z" fill="#fff"/></mask><g mask="url('#mask0_707_4221')" fill-rule="evenodd" clip-rule="evenodd" fill="#4148FF"><path d="M16.666 2.667a.67.67 0 0 0-.666.666v13.334a.67.67 0 0 0 .666.666h4.001v1.948l2.896-1.948H30a.67.67 0 0 0 .666-.666V3.333A.67.67 0 0 0 30 2.667H16.666Zm-2 .666c0-1.101.899-2 2-2H30c1.102 0 2 .899 2 2v13.334c0 1.101-.898 2-2 2h-6.03l-4.637 3.119v-3.119h-2.666c-1.102 0-2.001-.899-2.001-2V3.333Z"/><path d="M0 13.334c0-1.102.899-2 2-2h13.334v1.333H2a.67.67 0 0 0-.666.667v13.333a.67.67 0 0 0 .666.666h6.437l2.905 1.95v-1.95h4a.67.67 0 0 0 .666-.666V18h1.335v8.667c0 1.102-.899 2-2 2h-2.667v3.118l-4.645-3.118H2c-1.102 0-2.001-.898-2.001-2V13.333Z"/><path d="M4.666 18a2.662 2.662 0 0 1 2.667-2.667H10A2.662 2.662 0 0 1 12.667 18v.667h-1.334V18c0-.74-.593-1.333-1.333-1.333H7.333C6.593 16.667 6 17.26 6 18v4c0 .74.593 1.333 1.333 1.333H10c.74 0 1.333-.593 1.333-1.333v-.667h1.334V22A2.662 2.662 0 0 1 10 24.667H7.333A2.662 2.662 0 0 1 4.666 22v-4Z"/><path d="M10 19.334H3.335V18h6.667v1.334ZM10 22H3.335v-1.334h6.667v1.335ZM24 14v2h-1.334v-2H24ZM22.666 6V4H24v2h-1.334Z"/><path d="M19.334 8a2.662 2.662 0 0 1 2.667-2.667h2.667A2.662 2.662 0 0 1 27.335 8v.667H26V8c0-.74-.593-1.333-1.333-1.333H22c-.74 0-1.333.593-1.333 1.333s.593 1.333 1.333 1.333h2.667A2.662 2.662 0 0 1 27.335 12a2.662 2.662 0 0 1-2.667 2.667H22A2.662 2.662 0 0 1 19.334 12v-.666h1.334V12c0 .74.593 1.333 1.333 1.333h2.667c.74 0 1.333-.593 1.333-1.333s-.593-1.333-1.333-1.333H22A2.662 2.662 0 0 1 19.334 8Z"/></g></g><defs><clipPath id="clip0_707_4221"><path fill="#fff" d="M0 0h32v32H0z"/></clipPath></defs></svg>