<svg width="19" height="19" fill="none" xmlns="http://www.w3.org/2000/svg"><g clip-path="url('#clip0_707_4257')" fill="#4148FF"><path d="M16.438 13.433c-.56 0-1.03.392-1.15.915H9.6v-.301a.61.61 0 0 0-.488-.596 4.572 4.572 0 0 1-1.065-.358 4.528 4.528 0 0 1-2.328-2.598 4.527 4.527 0 0 1 .19-3.482 4.525 4.525 0 0 1 3.202-2.495.611.611 0 0 0 .489-.596v-.358h5.689c.12.524.59.916 1.149.916a1.18 1.18 0 1 0-1.15-1.443H9.6V1.604h2.52a1.18 1.18 0 0 0 2.329-.264 1.18 1.18 0 0 0-2.328-.264H9.6V.67a.609.609 0 0 0-.688-.603A9.145 9.145 0 0 0 6.72.648a.815.815 0 0 0-.427 1.114l.475.98a.288.288 0 0 1-.111.373 6.806 6.806 0 0 0-1.573 1.259c-.1.108-.27.12-.386.027l-.854-.675a.819.819 0 0 0-1.182.181A9.138 9.138 0 0 0 1.446 6.45a.819.819 0 0 0 .602 1.034l1.062.24a.287.287 0 0 1 .222.318 6.806 6.806 0 0 0 .008 2.014.288.288 0 0 1-.22.321l-1.061.246a.82.82 0 0 0-.597 1.037c.277.907.69 1.76 1.23 2.538a.82.82 0 0 0 1.184.174l.854-.684a.289.289 0 0 1 .389.026c.097.104.226.22.382.348a.264.264 0 0 0 .334-.408 3.601 3.601 0 0 1-.332-.302.82.82 0 0 0-1.103-.076l-.855.684a.29.29 0 0 1-.42-.063 8.58 8.58 0 0 1-1.158-2.391.29.29 0 0 1 .21-.368l1.062-.246a.818.818 0 0 0 .623-.916 6.28 6.28 0 0 1-.008-1.858.817.817 0 0 0-.628-.909l-1.061-.24a.29.29 0 0 1-.213-.367 8.612 8.612 0 0 1 1.145-2.397.29.29 0 0 1 .42-.065l.853.675a.818.818 0 0 0 1.102-.082c.423-.457.91-.848 1.45-1.162a.818.818 0 0 0 .321-1.06l-.475-.98a.288.288 0 0 1 .15-.393A8.618 8.618 0 0 1 8.982.59a.08.08 0 0 1 .09.08v3.252a.08.08 0 0 1-.068.079 5.049 5.049 0 0 0-3.571 2.783 5.052 5.052 0 0 0-.213 3.887 5.052 5.052 0 0 0 2.598 2.898 5.1 5.1 0 0 0 1.188.4.08.08 0 0 1 .065.078v3.348a.08.08 0 0 1-.089.08 8.44 8.44 0 0 1-2.021-.532.288.288 0 0 1-.151-.392l.001-.004.536-1.16a.669.669 0 0 0-.248-.841 19.6 19.6 0 0 1-.512-.338.264.264 0 1 0-.298.437c.167.114.344.23.527.346a.14.14 0 0 1 .051.175l-.534 1.158a.817.817 0 0 0 .432 1.109 8.965 8.965 0 0 0 2.147.565.613.613 0 0 0 .48-.145.609.609 0 0 0 .207-.458v-.56h2.52a1.18 1.18 0 0 0 2.329-.264 1.18 1.18 0 0 0-2.328-.263H9.6v-1.432h5.689c.12.524.59.916 1.149.916a1.18 1.18 0 0 0 0-2.359Zm0-10.784a.652.652 0 1 1-.002 1.304.652.652 0 0 1 .002-1.304ZM13.27.689a.652.652 0 1 1-.002 1.305A.652.652 0 0 1 13.27.69Zm0 15.231a.652.652 0 1 1-.002 1.305.652.652 0 0 1 .002-1.305Zm3.168-.656a.652.652 0 1 1 .001-1.305.652.652 0 0 1-.001 1.305Z"/><path d="M9.818 8.126a.264.264 0 1 0 0-.528h-.956a.264.264 0 0 0-.264.264v2.269c0 .146.118.264.264.264h.956a.264.264 0 1 0 0-.528h-.692v-.606h.621a.264.264 0 1 0 0-.528h-.621v-.607h.692ZM12.76 8.447c0-.474-.4-.86-.893-.86h-.608a.264.264 0 0 0-.265.265v2.29a.264.264 0 0 0 .528 0v-.707l.776.881a.263.263 0 1 0 .396-.349l-.605-.688a.867.867 0 0 0 .671-.832Zm-.893.331-.341.001-.002-.332v-.331h.343c.198 0 .365.152.365.331 0 .18-.167.331-.365.331ZM13.744 10.142a.264.264 0 0 0 .528 0v-.733h.374a.918.918 0 0 0 .922-.911.918.918 0 0 0-.922-.91h-.638a.264.264 0 0 0-.264.265v2.289Zm.902-2.026c.214 0 .394.175.394.382 0 .207-.18.382-.394.382l-.37.001c-.002-.137-.003-.621-.003-.765h.373Z"/><path d="M11.534 6.167h-1.95a2.868 2.868 0 0 0-2.865 2.865 2.868 2.868 0 0 0 2.865 2.865h4.786a2.868 2.868 0 0 0 2.865-2.865 2.868 2.868 0 0 0-2.865-2.865h-1.78a.264.264 0 1 0 0 .528h1.78a2.34 2.34 0 0 1 2.337 2.337 2.34 2.34 0 0 1-2.337 2.337H9.584a2.34 2.34 0 0 1-2.337-2.337 2.34 2.34 0 0 1 2.337-2.337h1.95a.264.264 0 0 0 0-.528Z"/></g><defs><clipPath id="clip0_707_4257"><path fill="#fff" transform="translate(.543 .062)" d="M0 0h17.942v17.942H0z"/></clipPath></defs></svg>