<svg width="19" height="19" viewBox="0 0 19 19" fill="none" xmlns="http://www.w3.org/2000/svg">
<g clip-path="url('#clip0_707_4257')">
<path d="M16.4379 13.4328C15.8783 13.4328 15.4088 13.8246 15.2886 14.3482H9.59998V14.0469C9.59998 13.7593 9.39473 13.5089 9.11189 13.4513C8.74542 13.3767 8.38712 13.2561 8.04702 13.0929C6.94951 12.5663 6.1228 11.6439 5.71906 10.4955C5.31535 9.34715 5.38304 8.11029 5.90959 7.01278C6.53207 5.71537 7.69892 4.80612 9.11101 4.51811C9.39434 4.46028 9.59998 4.20969 9.59998 3.92221V3.56443H15.2886C15.4088 4.088 15.8783 4.47981 16.4379 4.47981C17.0882 4.47981 17.6172 3.95075 17.6172 3.30043C17.6172 2.65011 17.0882 2.12105 16.4379 2.12105C15.8783 2.12105 15.4088 2.51286 15.2886 3.03643H9.59998V1.60491H12.1206C12.2408 2.12851 12.7103 2.52029 13.2698 2.52029C13.9202 2.52029 14.4492 1.99123 14.4492 1.34091C14.4492 0.690587 13.9202 0.161529 13.2698 0.161529C12.7103 0.161529 12.2408 0.553341 12.1206 1.07691H9.59998V0.669607C9.59998 0.493924 9.52405 0.326864 9.39166 0.211231C9.25977 0.0960563 9.08458 0.0434673 8.9116 0.0670514C8.15917 0.169273 7.42165 0.364915 6.71955 0.648487C6.51201 0.732299 6.34664 0.900556 6.26593 1.11007C6.18468 1.32092 6.19461 1.55841 6.29314 1.76166L6.7683 2.74173C6.83367 2.87662 6.78467 3.04062 6.65665 3.11507C6.07176 3.45545 5.54277 3.87902 5.08443 4.374C4.98471 4.48171 4.81473 4.49336 4.69755 4.40068L3.8443 3.72593C3.66756 3.58612 3.43833 3.52533 3.21552 3.55919C2.99175 3.59316 2.78991 3.71995 2.66182 3.90704C2.12702 4.68813 1.7181 5.54381 1.4465 6.45032C1.38141 6.6675 1.40957 6.90419 1.52373 7.09962C1.63739 7.29424 1.8287 7.43437 2.04852 7.48408L3.1096 7.72396C3.2554 7.75691 3.35301 7.89651 3.33185 8.04172C3.23463 8.70957 3.2373 9.38724 3.33988 10.0559C3.3623 10.2023 3.2655 10.3434 3.11949 10.3773L2.05859 10.6232C1.83912 10.6741 1.64865 10.8151 1.53601 11.0102C1.42288 11.2062 1.39591 11.443 1.46202 11.6599C1.73852 12.5667 2.15219 13.4208 2.6916 14.1984C2.82082 14.3847 3.02339 14.5102 3.24737 14.5429C3.4705 14.5753 3.69924 14.5132 3.87517 14.3723L4.73 13.6879C4.84659 13.5945 5.01734 13.6058 5.11882 13.7137C5.21643 13.8175 5.34491 13.9349 5.50064 14.0625C5.61335 14.1549 5.77971 14.1385 5.87218 14.0257C5.96461 13.913 5.94814 13.7466 5.83539 13.6542C5.6972 13.5409 5.58551 13.4392 5.50345 13.352C5.21471 13.045 4.72997 13.0114 4.4 13.2757L3.54516 13.9602C3.48216 14.0107 3.40341 14.032 3.32347 14.0204C3.24258 14.0086 3.17225 13.965 3.1254 13.8975C2.61729 13.165 2.22759 12.3604 1.96707 11.506C1.9431 11.4274 1.95243 11.3451 1.9933 11.2743C2.03363 11.2044 2.09918 11.1558 2.17778 11.1376L3.23868 10.8917C3.6521 10.7959 3.92578 10.3936 3.86172 9.97593C3.76714 9.35905 3.76464 8.73386 3.85433 8.11782C3.91491 7.70154 3.6389 7.30234 3.22597 7.20899L2.16493 6.9691C2.08615 6.95129 2.02033 6.90306 1.97957 6.83333C1.93835 6.76275 1.92863 6.68056 1.95222 6.60189C2.20816 5.74769 2.59349 4.94139 3.09742 4.20536C3.14381 4.1376 3.2139 4.09349 3.29468 4.08124C3.37441 4.0691 3.45333 4.09001 3.51672 4.14013L4.36997 4.81488C4.70205 5.07744 5.18598 5.04143 5.47181 4.7328C5.8946 4.27621 6.38258 3.88549 6.9222 3.57147C7.28743 3.35893 7.42852 2.89331 7.2434 2.51142L6.76827 1.53131C6.73275 1.45809 6.72937 1.3759 6.75866 1.2999C6.78742 1.22521 6.84377 1.16776 6.9173 1.13805C7.57882 0.870882 8.27371 0.686574 8.98274 0.590231C9.01178 0.586394 9.03216 0.598222 9.04441 0.608922C9.05473 0.617934 9.07201 0.637787 9.07201 0.669572V3.92221C9.07201 3.96047 9.04466 3.99275 9.00548 4.00074C7.43006 4.32205 6.12819 5.33665 5.43358 6.78437C4.84599 8.00901 4.77048 9.38918 5.22097 10.6706C5.67147 11.9521 6.59399 12.9814 7.81864 13.5689C8.19785 13.7509 8.59755 13.8854 9.00657 13.9687C9.04508 13.9765 9.07198 14.0087 9.07198 14.0469V17.3951C9.07198 17.4268 9.05473 17.4467 9.04445 17.4557C9.03227 17.4664 9.01185 17.4784 8.98313 17.4745C8.29314 17.3825 7.61311 17.2035 6.96183 16.9426C6.88805 16.913 6.83142 16.8556 6.80231 16.781C6.77281 16.7053 6.77583 16.6233 6.81086 16.5501C6.81139 16.549 6.81188 16.5479 6.81241 16.5468L7.34763 15.3874C7.48681 15.0859 7.38043 14.7241 7.1001 14.5457C6.92255 14.4327 6.75007 14.3192 6.58751 14.2084C6.46702 14.1262 6.30278 14.1572 6.22066 14.2777C6.1385 14.3982 6.16958 14.5624 6.29004 14.6446C6.45724 14.7586 6.63444 14.8752 6.81667 14.9911C6.87499 15.0283 6.89717 15.1035 6.86827 15.1661L6.33376 16.324C6.23727 16.5269 6.22872 16.7633 6.31038 16.9728C6.39187 17.1818 6.55773 17.3494 6.76545 17.4327C7.45738 17.71 8.18007 17.9001 8.9134 17.9979C8.94005 18.0014 8.96669 18.0032 8.99323 18.0032C9.13903 18.0032 9.2811 17.9504 9.3923 17.853C9.5243 17.7374 9.60001 17.5705 9.60001 17.3951V16.8357H12.1206C12.2409 17.3593 12.7103 17.7511 13.2699 17.7511C13.9202 17.7511 14.4493 17.2221 14.4493 16.5717C14.4493 15.9214 13.9202 15.3924 13.2699 15.3924C12.7103 15.3924 12.2409 15.7842 12.1206 16.3077H9.60001V14.8762H15.2886C15.4089 15.3998 15.8783 15.7916 16.4379 15.7916C17.0882 15.7916 17.6173 15.2625 17.6173 14.6122C17.6173 13.9619 17.0881 13.4328 16.4379 13.4328ZM16.4379 2.64902C16.797 2.64902 17.0892 2.94121 17.0892 3.3004C17.0892 3.65958 16.797 3.95178 16.4379 3.95178C16.0787 3.95178 15.7864 3.65958 15.7864 3.3004C15.7864 2.94121 16.0787 2.64902 16.4379 2.64902ZM13.2698 0.689531C13.629 0.689531 13.9212 0.981727 13.9212 1.34091C13.9212 1.70009 13.629 1.99229 13.2698 1.99229C12.9107 1.99229 12.6184 1.70009 12.6184 1.34091C12.6184 0.981727 12.9107 0.689531 13.2698 0.689531ZM13.2698 15.9203C13.629 15.9203 13.9212 16.2125 13.9212 16.5717C13.9212 16.9308 13.629 17.223 13.2698 17.223C12.9107 17.223 12.6184 16.9308 12.6184 16.5717C12.6184 16.2125 12.9107 15.9203 13.2698 15.9203ZM16.4379 15.2636C16.0787 15.2636 15.7864 14.9714 15.7864 14.6122C15.7864 14.253 16.0787 13.9608 16.4379 13.9608C16.797 13.9608 17.0892 14.253 17.0892 14.6122C17.0892 14.9714 16.797 15.2636 16.4379 15.2636Z" fill="#4148FF"></path>
<path d="M9.81766 8.12615C9.96349 8.12615 10.0817 8.00794 10.0817 7.86215C10.0817 7.71635 9.96349 7.59814 9.81766 7.59814H8.86166C8.71582 7.59814 8.59766 7.71635 8.59766 7.86215V10.131C8.59766 10.2768 8.71582 10.395 8.86166 10.395H9.81766C9.96349 10.395 10.0817 10.2768 10.0817 10.131C10.0817 9.98517 9.96349 9.86697 9.81766 9.86697H9.12566V9.26054H9.74715C9.89299 9.26054 10.0112 9.14234 10.0112 8.99654C10.0112 8.85074 9.89299 8.73254 9.74715 8.73254H9.12566V8.12611H9.81766V8.12615Z" fill="#4148FF"></path>
<path d="M12.7601 8.44699C12.7601 7.97326 12.3596 7.58789 11.8674 7.58789H11.2588C11.2587 7.58789 11.2586 7.58789 11.2585 7.58789C11.2584 7.58789 11.2582 7.58789 11.2581 7.58789C11.1123 7.58789 10.9941 7.70609 10.9941 7.85189V10.1416C10.9941 10.2874 11.1123 10.4056 11.2581 10.4056C11.404 10.4056 11.5221 10.2874 11.5221 10.1416V9.4346L12.2979 10.316C12.3501 10.3753 12.423 10.4056 12.4962 10.4056C12.5582 10.4056 12.6204 10.3839 12.6705 10.3398C12.7799 10.2435 12.7906 10.0766 12.6943 9.96721L12.0888 9.27926C12.4743 9.18425 12.7601 8.84718 12.7601 8.44699ZM11.8673 8.77808C11.7879 8.77808 11.6498 8.77868 11.5256 8.77928C11.5249 8.65773 11.5244 8.52372 11.5244 8.44702C11.5244 8.38197 11.524 8.24321 11.5237 8.11593H11.8674C12.0651 8.11593 12.2321 8.26754 12.2321 8.44702C12.2321 8.62647 12.0651 8.77808 11.8673 8.77808Z" fill="#4148FF"></path>
<path d="M13.7441 10.1415C13.7441 10.2873 13.8623 10.4055 14.0081 10.4055C14.154 10.4055 14.2721 10.2873 14.2721 10.1415V9.40945C14.406 9.40875 14.5592 9.40808 14.6457 9.40808C15.1545 9.40808 15.5685 8.99979 15.5685 8.49791C15.5685 7.99606 15.1545 7.58774 14.6457 7.58774H14.0081C13.938 7.58774 13.8707 7.61565 13.8212 7.66535C13.7716 7.71506 13.7439 7.78243 13.7441 7.85258V10.1415ZM14.6457 8.11574C14.8597 8.11574 15.0405 8.29076 15.0405 8.49791C15.0405 8.70506 14.8597 8.88008 14.6457 8.88008C14.5599 8.88008 14.4085 8.88075 14.2751 8.88145C14.2744 8.74375 14.2733 8.25981 14.2729 8.11578H14.6457V8.11574Z" fill="#4148FF"></path>
<path d="M11.5335 6.16699H9.58355C8.00391 6.16699 6.71875 7.45211 6.71875 9.03176C6.71875 10.6114 8.00391 11.8966 9.58355 11.8966H14.3701C15.9498 11.8966 17.2349 10.6114 17.2349 9.03176C17.2349 7.45211 15.9498 6.16699 14.3701 6.16699H12.5895C12.4436 6.16699 12.3255 6.28519 12.3255 6.43099C12.3255 6.57679 12.4436 6.69499 12.5895 6.69499H14.3701C15.6586 6.69499 16.7069 7.74326 16.7069 9.03176C16.7069 10.3203 15.6587 11.3686 14.3701 11.3686H9.58355C8.29505 11.3686 7.24675 10.3203 7.24675 9.03176C7.24675 7.74326 8.29501 6.69499 9.58355 6.69499H11.5335C11.6793 6.69499 11.7975 6.57679 11.7975 6.43099C11.7975 6.28519 11.6793 6.16699 11.5335 6.16699Z" fill="#4148FF"></path>
</g>
<defs>
<clipPath id="clip0_707_4257">
<rect width="17.9416" height="17.9416" fill="white" transform="translate(0.542969 0.0615234)"></rect>
</clipPath>
</defs>
</svg>
