<svg width="32" height="32" fill="none" xmlns="http://www.w3.org/2000/svg"><path d="M24.066 8.107a11.187 11.187 0 0 0-15.787 0L6.666 9.72V5.84a1 1 0 0 0-2 0v6.32a1.013 1.013 0 0 0 1 1.013h6.333a1 1 0 1 0 0-2H8L9.693 9.52a9.173 9.173 0 0 1 12.96 0c8.253 8.92-4 21.213-12.96 12.96a1 1 0 0 0-1.414 0 .988.988 0 0 0 0 1.413A11.163 11.163 0 1 0 24.066 8.107Z" fill="#4148FF"/><path d="M16 10.333a1.013 1.013 0 0 0-1 1V16a1 1 0 0 0 .293.707L18.667 20a.986.986 0 0 0 .706.293A1 1 0 0 0 20 18.667l-3.04-3.04v-4.294a1.014 1.014 0 0 0-.96-1Z" fill="#4148FF"/></svg>