<svg width="32" height="32" fill="none" xmlns="http://www.w3.org/2000/svg"><g clip-path="url('#clip0_707_4137')"><path d="M6.667 4h2.666v2.667H6.667v6.666A2.667 2.667 0 0 1 4 16a2.667 2.667 0 0 1 2.667 2.667v6.666h2.666V28H6.667C5.24 27.64 4 26.8 4 25.333V20a2.667 2.667 0 0 0-2.667-2.667H0v-2.666h1.333A2.667 2.667 0 0 0 4 12V6.667A2.667 2.667 0 0 1 6.667 4Zm18.666 0A2.667 2.667 0 0 1 28 6.667V12a2.667 2.667 0 0 0 2.667 2.667H32v2.666h-1.333A2.667 2.667 0 0 0 28 20v5.333A2.667 2.667 0 0 1 25.333 28h-2.666v-2.667h2.666v-6.666A2.667 2.667 0 0 1 28 16a2.667 2.667 0 0 1-2.667-2.667V6.667h-2.666V4h2.666ZM16 20a1.334 1.334 0 1 1 0 2.667A1.334 1.334 0 0 1 16 20Zm-5.333 0a1.333 1.333 0 1 1 0 2.666 1.333 1.333 0 0 1 0-2.666Zm10.666 0a1.334 1.334 0 1 1 0 2.667 1.334 1.334 0 0 1 0-2.667Z" fill="#4148FF"/></g><defs><clipPath id="clip0_707_4137"><path fill="#fff" d="M0 0h32v32H0z"/></clipPath></defs></svg>