<svg width="140" height="23" fill="none" xmlns="http://www.w3.org/2000/svg"><g clip-path="url('#clip0_707_4371')"><path d="M42.424 13.05c-.023.06-.045.125-.062.185-.19.524-.491.938-.91 1.254-.408.321-.928.48-1.57.48s-1.156-.159-1.57-.48c-.407-.31-.703-.73-.91-1.254a4.907 4.907 0 0 1-.29-1.689c0-.604.094-1.166.29-1.689.201-.523.503-.937.91-1.264.42-.322.939-.49 1.57-.49.631 0 1.168.168 1.57.49.419.321.715.741.91 1.264.023.06.045.115.056.18l1.441-.158a3.633 3.633 0 0 0-.302-.79c-.351-.709-.843-1.253-1.474-1.635-.631-.398-1.358-.583-2.2-.583-.844 0-1.57.185-2.202.583a3.95 3.95 0 0 0-1.463 1.635c-.352.697-.536 1.52-.536 2.463 0 .942.184 1.749.536 2.452a4.053 4.053 0 0 0 1.463 1.634c.632.387 1.369.583 2.201.583.832 0 1.57-.196 2.2-.583a4.035 4.035 0 0 0 1.475-1.634c.129-.25.235-.523.313-.801l-1.44-.147-.006-.006ZM52.925 6.98v9.05h-1.424V14.5h-.106c-.213.457-.548.844-1.006 1.166-.458.321-1.05.48-1.742.48-.576 0-1.09-.126-1.548-.377a2.591 2.591 0 0 1-1.055-1.128 3.638 3.638 0 0 1-.352-1.291 5.604 5.604 0 0 1-.034-.627V6.98h1.425v5.65c0 .665.19 1.188.564 1.586.385.387.877.583 1.463.583.352 0 .715-.082 1.078-.261.374-.18.682-.447.927-.812.257-.365.386-.834.386-1.395V6.98h1.424ZM59.811 6.844c-.162 0-.29-.011-.396-.011-.553 0-1.056.147-1.497.425a2.16 2.16 0 0 0-.922 1.084h-.095V6.975h-1.38v9.056h1.42v-5.727c0-.42.105-.774.312-1.095.207-.322.48-.572.832-.752a2.537 2.537 0 0 1 1.207-.284c.184 0 .363.022.536.044.173.022.28.044.33.055V6.866a2.707 2.707 0 0 0-.352-.022h.005ZM66.437 6.844c-.151 0-.29-.011-.397-.011-.547 0-1.05.147-1.497.425-.435.272-.748.638-.91 1.084h-.095V6.975h-1.38v9.056h1.425v-5.727c0-.42.106-.774.312-1.095.207-.322.48-.572.833-.752.34-.185.748-.284 1.195-.284.19 0 .374.022.547.044.174.022.28.044.33.055V6.866a2.764 2.764 0 0 0-.363-.022ZM75.62 11.394c0-.845-.118-1.564-.341-2.136-.235-.572-.547-1.041-.927-1.395a3.67 3.67 0 0 0-1.285-.763 4.459 4.459 0 0 0-1.43-.229c-.832 0-1.57.196-2.19.594-.63.398-1.111.948-1.463 1.657-.352.708-.525 1.53-.525 2.462 0 .932.173 1.733.525 2.43.352.698.844 1.243 1.497 1.63.642.387 1.413.583 2.307.583.62 0 1.184-.093 1.687-.294a3.515 3.515 0 0 0 1.273-.801c.341-.333.587-.741.727-1.188l-1.38-.387c-.117.321-.29.583-.514.79a2.08 2.08 0 0 1-.782.469 3.176 3.176 0 0 1-1.017.158 3.123 3.123 0 0 1-1.519-.365 2.485 2.485 0 0 1-1.017-1.085c-.223-.425-.352-.937-.363-1.542h6.737v-.588Zm-6.737-.616c.023-.425.14-.812.33-1.188.212-.436.536-.79.95-1.062.407-.273.899-.42 1.463-.42.514 0 .96.125 1.346.354.374.229.676.54.877.948.212.398.307.856.307 1.368h-5.278.005ZM83.83 8.37a2.534 2.534 0 0 0-1.1-1.128c-.47-.25-1.017-.376-1.649-.376-.692 0-1.273.136-1.709.42-.447.283-.77.659-.994 1.116h-.118V6.986h-1.38v9.045h1.42v-5.444c0-.534.106-.98.312-1.346.202-.365.492-.648.844-.844.352-.185.76-.294 1.218-.294.664 0 1.172.207 1.558.604.374.398.564.949.564 1.657v5.661h1.424v-5.754c0-.763-.128-1.406-.396-1.907l.005.006ZM92.198 13.165s-.01.054-.022.07a2.76 2.76 0 0 1-.922 1.254c-.407.321-.927.48-1.57.48-.641 0-1.155-.159-1.558-.48-.419-.31-.715-.73-.921-1.254a4.908 4.908 0 0 1-.29-1.689c0-.604.094-1.166.29-1.689.2-.523.502-.937.921-1.264.408-.322.928-.49 1.559-.49.631 0 1.167.168 1.57.49.418.321.714.741.921 1.264.011.022.011.033.022.055l1.43-.148a3.561 3.561 0 0 0-.268-.675c-.352-.709-.843-1.253-1.474-1.635-.632-.398-1.358-.583-2.201-.583-.844 0-1.57.185-2.19.583a3.9 3.9 0 0 0-1.474 1.635c-.352.697-.537 1.52-.537 2.463 0 .942.185 1.749.537 2.452a4 4 0 0 0 1.474 1.634c.62.387 1.358.583 2.19.583.832 0 1.57-.196 2.2-.583a4.034 4.034 0 0 0 1.475-1.634c.106-.218.201-.447.28-.687l-1.442-.147v-.005ZM101.163 6.98l-2.564 7.204h-.095L95.951 6.98h-1.547l3.43 9.094-.268.709c-.173.457-.363.79-.564 1.002-.213.196-.447.31-.715.343-.268.022-.565-.01-.922-.092l-.352 1.22c.062.044.201.071.386.115.19.033.407.054.653.054.43 0 .81-.07 1.156-.218.352-.158.654-.387.91-.686.269-.31.481-.698.666-1.166l3.932-10.364h-1.542l-.011-.011ZM108.055 6.98h1.849v1.885h-1.849v7.166h-2.564V8.865h-1.302V6.98h1.302v-.66c0-.659.14-1.198.397-1.628a2.44 2.44 0 0 1 1.089-.97c.447-.218.972-.322 1.558-.322.397 0 .76.022 1.078.082.33.06.575.114.737.158l-.458 1.885a2.122 2.122 0 0 0-.374-.082 2.103 2.103 0 0 0-.447-.043c-.374 0-.642.082-.793.25-.151.18-.223.42-.223.72v.61ZM112.082 3.967V16.03h2.575V3.967h-2.575ZM124.908 9.089a3.995 3.995 0 0 0-1.58-1.635c-.682-.398-1.497-.583-2.425-.583-.927 0-1.754.185-2.435.583a3.936 3.936 0 0 0-1.57 1.635c-.374.697-.558 1.52-.558 2.452 0 .932.184 1.743.558 2.441a3.843 3.843 0 0 0 1.57 1.635c.681.397 1.497.594 2.435.594.939 0 1.743-.197 2.425-.594a3.963 3.963 0 0 0 1.58-1.635c.363-.697.559-1.51.559-2.441 0-.932-.19-1.75-.559-2.452Zm-2.29 3.847c-.139.408-.363.73-.642.97-.291.24-.643.354-1.067.354-.425 0-.793-.115-1.089-.354a2.116 2.116 0 0 1-.654-.97 4.13 4.13 0 0 1-.223-1.406c0-.518.072-1.003.223-1.406.14-.42.363-.74.654-.98.301-.24.653-.366 1.089-.366.436 0 .782.126 1.067.365.279.24.503.562.642.981.151.409.224.877.224 1.406 0 .529-.073.992-.224 1.406ZM137.403 6.98l-1.413 6.048h-.084l-1.519-6.048h-2.553l-1.497 6.081h-.084l-1.43-6.081h-2.608l2.525 9.05h2.714l1.603-5.694h.106l1.592 5.695h2.726l2.525-9.051H137.403Z" fill="#000"/><path d="M15.511 23H9.86c-.492 0-.944-.256-1.19-.67L.184 7.994a1.31 1.31 0 0 1 0-1.34L3.005 1.89c.53-.894 1.849-.894 2.38 0L16.7 20.989c.53.894-.134 2.01-1.19 2.01Z" fill="#4148FF"/><path d="M16.97 10.408h5.977c1.056 0 1.72 1.117 1.19 2.01l-2.989 5.051c-.53.894-1.849.894-2.38 0l-2.988-5.05c-.53-.895.134-2.011 1.19-2.011Z" fill="#01BD7E"/><path d="M25.035 6.91H13.31c-.491 0-.944-.257-1.19-.671L9.619 2.011C9.088 1.117 9.752 0 10.808 0h11.724c.492 0 .944.256 1.19.67L26.225 4.9c.53.893-.135 2.01-1.19 2.01Z" fill="#4148FF"/></g><defs><clipPath id="clip0_707_4371"><path fill="#fff" d="M0 0h140v23H0z"/></clipPath></defs></svg>