<svg width="32" height="32" fill="none" xmlns="http://www.w3.org/2000/svg"><g clip-path="url('#clip0_707_4163')"><path d="M16 .533C7.467.533.533 7.467.533 16c0 8.533 6.934 15.467 15.467 15.467 8.533 0 15.466-6.934 15.466-15.467C31.466 7.467 24.534.533 16 .533Zm14.4 14.934H16.533V1.6c3.787.16 7.147 1.707 9.653 4.213 2.507 2.507 4.054 5.867 4.214 9.654ZM5.813 5.813C8.32 3.307 11.68 1.76 15.467 1.6v13.867H1.6c.16-3.787 1.707-7.147 4.213-9.654Zm-.373 20a14.742 14.742 0 0 1-3.84-9.28h13.12l-9.28 9.28Zm20.746.374A14.302 14.302 0 0 1 16 30.4c-3.787 0-7.2-1.44-9.813-3.84l10.026-10.027H30.4c-.16 3.787-1.707 7.147-4.213 9.654Z" fill="#4148FF" stroke="#4148FF"/></g><defs><clipPath id="clip0_707_4163"><path fill="#fff" d="M0 0h32v32H0z"/></clipPath></defs></svg>