<svg width="16" height="17" fill="none" xmlns="http://www.w3.org/2000/svg"><path d="M.545 1.304c0-.343.278-.621.621-.621h3.925c.343 0 .621.278.621.621v3.925a.621.621 0 0 1-.621.621H1.166a.621.621 0 0 1-.621-.621V1.304Zm0 8.97c0-.342.278-.62.621-.62h3.925c.343 0 .621.278.621.62V14.2a.621.621 0 0 1-.621.62H1.166a.621.621 0 0 1-.621-.62v-3.925Zm8.97-8.97c0-.343.279-.621.622-.621h3.925c.343 0 .621.278.621.621v3.925a.621.621 0 0 1-.621.621h-3.925a.621.621 0 0 1-.621-.621V1.304Zm2.145 7.719a.621.621 0 0 1 .879 0l2.775 2.775a.621.621 0 0 1 0 .879l-2.775 2.775a.621.621 0 0 1-.879 0l-2.775-2.775a.621.621 0 0 1 0-.88l2.775-2.774Z" stroke="#4148FF"/></svg>