<svg width="19" height="19" fill="none" xmlns="http://www.w3.org/2000/svg"><g clip-path="url('#clip0_707_4288')" fill="#4148FF"><path d="M15.4 8.348a2.77 2.77 0 0 0-.364.027.263.263 0 0 0 .068.52 2.26 2.26 0 0 1 .297-.02 2.268 2.268 0 0 1 2.265 2.264 2.268 2.268 0 0 1-2.265 2.266H3.32a2.55 2.55 0 0 1-2.545-2.546 2.548 2.548 0 0 1 2.542-2.547h.007l.034.002a.262.262 0 0 0 .265-.228 3.958 3.958 0 0 1 3.911-3.425A3.95 3.95 0 0 1 10.81 6.4c.066.098.19.14.303.101.3-.103.608-.155.917-.155 1.003 0 1.94.54 2.444 1.41a.263.263 0 1 0 .455-.263 3.361 3.361 0 0 0-2.9-1.673c-.301 0-.602.042-.898.125A4.474 4.474 0 0 0 3.14 7.792 3.076 3.076 0 0 0 .25 10.858a3.075 3.075 0 0 0 3.072 3.072H15.4a2.794 2.794 0 0 0 2.79-2.79 2.794 2.794 0 0 0-2.79-2.792Z"/><path d="M4.97 11.49c-.289 0-.567-.117-.745-.313a.263.263 0 1 0-.39.353c.276.304.7.486 1.134.486.524 0 .98-.344 1.061-.8.062-.347-.099-.8-.736-1.036a14.396 14.396 0 0 1-.746-.301.259.259 0 0 1-.101-.25c.018-.129.118-.232.266-.277.42-.126.8.178.81.185a.263.263 0 0 0 .337-.403c-.024-.02-.6-.495-1.298-.285-.344.104-.588.374-.635.705a.783.783 0 0 0 .385.795c.016.007.385.171.8.325.287.105.433.269.4.449-.031.18-.243.367-.543.367ZM13.075 11.49c-.289 0-.567-.117-.744-.313a.263.263 0 1 0-.39.353c.276.304.7.486 1.134.486.523 0 .98-.344 1.06-.8.063-.347-.098-.8-.735-1.036a14.385 14.385 0 0 1-.746-.301.26.26 0 0 1-.101-.25c.018-.129.117-.232.266-.277.42-.126.8.178.81.185a.263.263 0 0 0 .337-.403c-.024-.02-.6-.495-1.299-.285-.344.104-.587.374-.635.705a.783.783 0 0 0 .386.795c.015.007.384.171.8.325.287.105.432.269.4.449-.032.18-.244.367-.543.367ZM11.083 12.025a.263.263 0 0 0 .263-.262V9.907a.263.263 0 0 0-.526 0 1.083 1.083 0 1 0-.556 2.01c.203 0 .393-.057.556-.155 0 .146.118.263.263.263Zm-.82-.634a.557.557 0 1 1 .002-1.114.557.557 0 0 1-.001 1.114ZM8.425 12.025a.263.263 0 0 0 .262-.262V9.906a.263.263 0 1 0-.525 0v.001a1.083 1.083 0 0 0-1.638.928 1.083 1.083 0 0 0 1.638.927c0 .146.117.263.263.263Zm-.82-.634a.557.557 0 1 1 .002-1.114.557.557 0 0 1-.002 1.114Z"/></g><defs><clipPath id="clip0_707_4288"><path fill="#fff" transform="translate(.25 .062)" d="M0 0h17.942v17.942H0z"/></clipPath></defs></svg>