<svg width="27" height="32" fill="none" xmlns="http://www.w3.org/2000/svg"><path d="M9.243 20.236c.041-.281.036-1.73 0-2.294-.08-1.243-.572-2.88.041-3.342.43-.322 1.458-.41 3.098-.41 1.442 0 3.422-.578 4.188.19.407.407.646 5.87.221 6.19-1.23.924-4.513.663-5.96.663M11.074 13.1c.423-3.963 3.536-3.286 3.536 0M13.225 18.384v-.48" stroke="#4148FF" stroke-width="2" stroke-linecap="round" stroke-linejoin="round"/><path d="M9.669 28.912C6.863 26.808.126 15.685 2.189 9.773c.125-.356 7.606-3.401 11.012-8.202 3.804 5.475 10.689 7.984 10.783 8.202 2.242 5.206-6.096 18.467-10.639 20.741" stroke="#4148FF" stroke-width="2" stroke-linecap="round" stroke-linejoin="round"/></svg>