<svg width="19" height="19" viewBox="0 0 19 19" fill="none" xmlns="http://www.w3.org/2000/svg">
<path d="M16.3708 12.7541H7.91839C7.18599 12.7531 6.59211 12.1597 6.59118 11.4269V10.416L4.51166 2.94292C4.44263 2.73029 4.24483 2.58622 4.02108 2.58622L2.40527 2.58437C2.25054 2.58437 2.125 2.45883 2.125 2.3041C2.125 2.14938 2.25054 2.02384 2.40527 2.02384H4.02061C4.49081 2.02291 4.90681 2.32773 5.04764 2.77615C7.17951 10.4369 7.1304 10.259 7.1304 10.2599C7.16839 10.3512 7.14476 10.3229 7.15217 11.425C7.15264 11.848 7.49544 12.1912 7.91839 12.1912H16.3708C16.5255 12.1912 16.6511 12.3168 16.6511 12.4715C16.6511 12.6262 16.5255 12.7517 16.3708 12.7517V12.7541Z" fill="#4148FF"></path>
<path d="M15.3977 10.7491H6.87249C6.71777 10.7491 6.59223 10.6236 6.59223 10.4689C6.59223 10.3142 6.71777 10.1886 6.87249 10.1886H15.3977C15.583 10.1882 15.7395 10.0506 15.7636 9.86666L16.4034 4.86913C16.4293 4.66716 16.2866 4.48232 16.0847 4.45638C16.0393 4.45082 16.5488 4.45452 5.1455 4.4536C4.99077 4.4536 4.86523 4.32806 4.86523 4.17333C4.86523 4.01861 4.99077 3.89307 5.1455 3.89307H16.0356C16.597 3.89307 17.0297 4.38828 16.9574 4.94047L16.3177 9.93754C16.2579 10.4003 15.8642 10.7478 15.3977 10.7491Z" fill="#4148FF"></path>
<path d="M13.6147 10.7143H13.5989C13.4637 10.7055 13.3613 10.5893 13.3696 10.454L13.7726 4.15798C13.7814 4.02271 13.8982 3.91987 14.0335 3.92821C14.1687 3.93701 14.2716 4.05375 14.2632 4.18902L13.8602 10.485C13.8519 10.6143 13.7439 10.7148 13.6147 10.7143Z" fill="#4148FF"></path>
<path d="M11.2631 10.7143C11.1278 10.7143 11.0176 10.6045 11.0176 10.4688V4.17277C11.0176 4.0375 11.1274 3.92725 11.2631 3.92725C11.3984 3.92725 11.5086 4.03704 11.5086 4.17277V10.4692C11.5086 10.6045 11.3988 10.7143 11.2631 10.7143Z" fill="#4148FF"></path>
<path d="M8.91275 10.7144C8.78304 10.7149 8.67556 10.6143 8.66722 10.4851L8.2642 4.18907C8.2554 4.0538 8.35824 3.9366 8.49397 3.92826C8.62924 3.91946 8.74644 4.0223 8.75478 4.15803L9.1578 10.454C9.16661 10.5893 9.06376 10.7056 8.9285 10.7144H8.91275Z" fill="#4148FF"></path>
<path d="M16.3694 7.56569H6.02091C5.88564 7.56569 5.77539 7.4559 5.77539 7.32017C5.77539 7.18444 5.88518 7.07465 6.02091 7.07465H16.3694C16.5047 7.07465 16.6149 7.18444 16.6149 7.32017C16.6149 7.4559 16.5052 7.56569 16.3694 7.56569Z" fill="#4148FF"></path>
<path d="M15.3393 16.0408C14.6143 16.0408 14.0269 15.4529 14.0273 14.7279C14.0278 14.003 14.6152 13.4156 15.3402 13.416C16.0647 13.416 16.6521 14.0039 16.6521 14.7284C16.6512 15.4529 16.0638 16.0403 15.3393 16.0408ZM15.3393 13.9765C14.9242 13.9765 14.5879 14.3133 14.5879 14.7284C14.5879 15.1435 14.9247 15.4798 15.3397 15.4798C15.7548 15.4798 16.0911 15.143 16.0911 14.7279C16.0911 14.3124 15.7543 13.9756 15.3393 13.9752V13.9765Z" fill="#4148FF"></path>
<path d="M8.21277 16.0408C7.48779 16.0408 6.90039 15.4534 6.90039 14.7284C6.90039 14.0034 7.48779 13.416 8.21277 13.416C8.93776 13.416 9.52516 14.0034 9.52516 14.7284C9.52423 15.4529 8.9373 16.0399 8.21277 16.0408ZM8.21277 13.9765C7.7977 13.9765 7.46092 14.3129 7.46092 14.7284C7.46092 15.1435 7.79724 15.4803 8.21277 15.4803C8.62785 15.4803 8.96463 15.1439 8.96463 14.7284C8.96463 14.3133 8.62831 13.9761 8.21277 13.9756V13.9765Z" fill="#4148FF"></path>
</svg>
