<svg width="19" height="19" fill="none" xmlns="http://www.w3.org/2000/svg"><path d="M16.37 12.754H7.919a1.329 1.329 0 0 1-1.327-1.327v-1.011l-2.08-7.473a.516.516 0 0 0-.49-.357l-1.616-.002a.28.28 0 0 1 0-.56h1.616c.47-.001.886.304 1.027.752L7.13 10.26c.038.091.015.063.022 1.165 0 .423.343.766.766.766h8.453a.28.28 0 0 1 0 .56v.003Z" fill="#4148FF"/><path d="M15.398 10.75H6.872a.28.28 0 0 1 0-.561h8.526a.37.37 0 0 0 .366-.322l.64-4.998a.369.369 0 0 0-.32-.413c-.045-.005.465-.001-10.938-.002a.28.28 0 0 1 0-.56h10.89a.93.93 0 0 1 .921 1.046l-.64 4.998a.93.93 0 0 1-.92.811Z" fill="#4148FF"/><path d="M13.615 10.714h-.016a.246.246 0 0 1-.23-.26l.404-6.296a.246.246 0 0 1 .49.031l-.403 6.296a.245.245 0 0 1-.245.23ZM11.263 10.714a.246.246 0 0 1-.245-.245V4.173a.246.246 0 0 1 .49 0v6.296c0 .136-.11.245-.245.245ZM8.913 10.714c-.13 0-.237-.1-.246-.229L8.264 4.19a.245.245 0 1 1 .49-.031l.404 6.296a.245.245 0 0 1-.23.26h-.015Z" fill="#4148FF"/><path d="M16.37 7.566H6.02a.246.246 0 0 1 0-.491h10.35a.246.246 0 0 1 0 .49ZM15.34 16.04a1.312 1.312 0 1 1 0-2.623 1.312 1.312 0 0 1 0 2.624Zm0-2.063a.752.752 0 1 0 0 1.505.752.752 0 0 0 0-1.507v.002ZM8.213 16.04a1.312 1.312 0 1 1 0-2.624 1.312 1.312 0 0 1 0 2.625Zm0-2.063a.752.752 0 1 0 0 1.505.752.752 0 0 0 0-1.506Z" fill="#4148FF"/></svg>