<svg width="32" height="32" viewBox="0 0 32 32" fill="none" xmlns="http://www.w3.org/2000/svg">
<path d="M14.666 10.6666L12.5624 9.61479C12.1921 9.42964 11.7838 9.33325 11.3698 9.33325H10.4373C9.73 9.33325 9.05174 9.6142 8.55163 10.1143L7.44707 11.2189C6.94696 11.719 6.66602 12.3972 6.66602 13.1045V19.9061C6.66602 20.7977 7.11162 21.6303 7.85348 22.1249L13.0093 25.5621C13.9919 26.2173 15.2884 26.1479 16.1956 25.3919L22.666 19.9999" stroke="#4148FF" stroke-width="2" stroke-linecap="round" stroke-linejoin="round"></path>
<path d="M19.2728 17.2189C18.4682 16.1415 16.9876 15.8318 15.8186 16.4961L13.3449 17.9021C12.5502 18.3537 11.5517 18.2187 10.9054 17.5725C10.061 16.7279 10.1239 15.3407 11.0413 14.5763L16.5912 9.95133C17.0705 9.55196 17.6745 9.33325 18.2984 9.33325H19.3701C19.7841 9.33325 20.1924 9.42964 20.5626 9.61479L23.8588 11.2629C24.7622 11.7146 25.3329 12.6379 25.3329 13.6481V17.3061C25.3329 19.8715 22.0648 20.9573 20.5297 18.9018L19.2728 17.2189Z" stroke="#4148FF" stroke-width="2" stroke-linecap="round" stroke-linejoin="round"></path>
<path d="M1.33398 22.6667V10.6667" stroke="#4148FF" stroke-width="2" stroke-linecap="round" stroke-linejoin="round"></path>
<path d="M1.33398 22.6667V10.6667" stroke="#4148FF" stroke-width="2" stroke-linecap="round" stroke-linejoin="round"></path>
<path d="M30.666 22.6667V10.6667" stroke="#4148FF" stroke-width="2" stroke-linecap="round" stroke-linejoin="round"></path>
</svg>
