<svg width="32" height="32" fill="none" xmlns="http://www.w3.org/2000/svg"><path d="m14.666 10.667-2.104-1.052a2.667 2.667 0 0 0-1.192-.282h-.933c-.707 0-1.385.281-1.885.781L7.447 11.22c-.5.5-.781 1.178-.781 1.886v6.801c0 .892.446 1.724 1.187 2.219l5.156 3.437c.983.655 2.28.586 3.187-.17L22.666 20" stroke="#4148FF" stroke-width="2" stroke-linecap="round" stroke-linejoin="round"/><path d="M19.273 17.219a2.667 2.667 0 0 0-3.454-.723l-2.474 1.406a2.031 2.031 0 0 1-2.304-3.326l5.55-4.625c.48-.399 1.083-.618 1.707-.618h1.072c.414 0 .822.097 1.193.282l3.296 1.648a2.667 2.667 0 0 1 1.474 2.385v3.658c0 2.566-3.268 3.651-4.803 1.596l-1.257-1.683ZM1.334 22.667v-12M1.334 22.667v-12M30.666 22.667v-12" stroke="#4148FF" stroke-width="2" stroke-linecap="round" stroke-linejoin="round"/></svg>