<svg width="32" height="32" fill="none" xmlns="http://www.w3.org/2000/svg"><path d="M23.753 16.8a7.82 7.82 0 0 1-6.937 6.973.268.268 0 0 0-.272.272v5.82a.544.544 0 1 1-1.088 0v-2.111a.294.294 0 0 0-.272-.273 11.469 11.469 0 0 1-10.24-8.81.544.544 0 1 1 1.052-.271 10.342 10.342 0 0 0 9.152 7.958c.07.035.138 0 .205-.067a.204.204 0 0 0 .103-.205v-2.041a.27.27 0 0 0-.272-.272 7.916 7.916 0 0 1-4.692-2.24 7.834 7.834 0 0 1-2.24-4.73.285.285 0 0 0-.272-.24H2.16a.56.56 0 0 1 0-1.12h2.21a.288.288 0 0 0 .273-.24A11.594 11.594 0 0 1 13.142 4.72a.563.563 0 0 1 .272 1.091 10.38 10.38 0 0 0-7.654 9.322.263.263 0 0 0 .272.32h1.936a.284.284 0 0 0 .272-.24 7.821 7.821 0 0 1 6.944-6.986.269.269 0 0 0 .272-.272v-5.82a.544.544 0 1 1 1.088 0v6.6a.553.553 0 0 1-.58.58c-5.916 0-8.873 7.245-4.69 11.43 4.182 4.186 11.32 1.19 11.423-4.745a.538.538 0 0 1 .544-.544h6.599a.56.56 0 1 1 0 1.12h-2.176a.262.262 0 0 0-.272.24 11.564 11.564 0 0 1-8.74 10.384c-.713.17-.96-.918-.24-1.088a10.4 10.4 0 0 0 7.856-9.245.263.263 0 0 0-.272-.32h-1.97a.285.285 0 0 0-.273.24v.013Zm4.407-9.05-3.933 3.91a.537.537 0 0 1-.371.174h-2.621a.458.458 0 0 0-.202.067l-4.659 4.694a.553.553 0 0 1-.784-.78l4.66-4.698a.184.184 0 0 0 .102-.17V8.32a.558.558 0 0 1 .17-.406l3.91-3.908a.554.554 0 0 1 .96.375v2.144a.29.29 0 0 0 .272.272h2.108a.56.56 0 0 1 .407.96l-.02-.007Zm-4.48 2.88 2.278-2.278a.275.275 0 0 0-.17-.477h-.96a.566.566 0 0 1-.579-.544V6.4a.282.282 0 0 0-.477-.202l-2.24 2.279a.3.3 0 0 0-.102.205v1.77a.27.27 0 0 0 .272.271h1.802c.07 0 .137 0 .17-.07l.006-.023Zm-3.06 5.376A4.624 4.624 0 1 1 16 11.39a.547.547 0 0 1 0 1.09 3.52 3.52 0 0 0 0 7.04c2.041 0 3.401-1.529 3.5-3.52a.562.562 0 1 1 1.124.033l-.004-.026Z" fill="#4148FF"/></svg>