<svg width="32" height="32" viewBox="0 0 32 32" fill="none" xmlns="http://www.w3.org/2000/svg">
<path d="M23.7532 16.7999C23.5695 18.5807 22.7805 20.2445 21.5178 21.5135C20.2552 22.7826 18.5954 23.58 16.8156 23.7727C16.7798 23.7723 16.7442 23.779 16.711 23.7926C16.6778 23.8061 16.6477 23.8261 16.6223 23.8514C16.597 23.8768 16.577 23.9069 16.5634 23.9401C16.5499 23.9733 16.5432 24.0089 16.5436 24.0447V29.8655C16.5436 30.0098 16.4863 30.1482 16.3843 30.2502C16.2823 30.3522 16.1439 30.4095 15.9996 30.4095C15.8553 30.4095 15.717 30.3522 15.6149 30.2502C15.5129 30.1482 15.4556 30.0098 15.4556 29.8655V27.7535C15.4504 27.6831 15.4201 27.6169 15.3702 27.567C15.3202 27.517 15.254 27.4867 15.1836 27.4815C12.7641 27.2857 10.4692 26.3273 8.62904 24.7442C6.78891 23.1611 5.49852 21.035 4.94361 18.6719C4.92295 18.6019 4.9166 18.5285 4.92493 18.4559C4.93326 18.3834 4.95609 18.3133 4.99208 18.2498C5.02807 18.1863 5.07647 18.1307 5.13441 18.0863C5.19234 18.0419 5.25862 18.0096 5.3293 17.9913C5.39997 17.973 5.4736 17.9692 5.5458 17.98C5.618 17.9908 5.68728 18.016 5.74953 18.0541C5.81178 18.0922 5.86572 18.1425 5.90813 18.2019C5.95054 18.2613 5.98057 18.3287 5.99641 18.3999C6.48974 20.5211 7.64007 22.4324 9.28342 23.8614C10.9268 25.2905 12.9793 26.1643 15.1484 26.3583C15.2188 26.3935 15.286 26.3583 15.3532 26.2911C15.3887 26.2711 15.4175 26.2409 15.4357 26.2044C15.4539 26.1679 15.4609 26.1268 15.4556 26.0863V24.0447C15.456 24.0089 15.4493 23.9733 15.4358 23.9401C15.4223 23.9069 15.4022 23.8768 15.3769 23.8514C15.3516 23.8261 15.3214 23.8061 15.2882 23.7926C15.255 23.779 15.2194 23.7723 15.1836 23.7727C13.4123 23.5754 11.7594 22.7862 10.4924 21.5327C9.22565 20.2596 8.43483 18.5898 8.25241 16.8031C8.24203 16.7377 8.2092 16.678 8.15956 16.6342C8.10992 16.5904 8.04657 16.5653 7.98041 16.5631H2.15961C2.01109 16.5631 1.86865 16.5041 1.76363 16.3991C1.65861 16.2941 1.59961 16.1517 1.59961 16.0031C1.59961 15.8546 1.65861 15.7122 1.76363 15.6072C1.86865 15.5021 2.01109 15.4431 2.15961 15.4431H4.37081C4.43679 15.4404 4.49982 15.415 4.54934 15.3713C4.59886 15.3276 4.63186 15.2683 4.64281 15.2031C4.78802 12.7873 5.68564 10.4774 7.20984 8.5974C8.73403 6.7174 10.8084 5.36155 13.142 4.71993C13.2833 4.69311 13.4296 4.72137 13.5507 4.79893C13.6718 4.87649 13.7587 4.99746 13.7935 5.13703C13.8283 5.27661 13.8084 5.4242 13.7378 5.54955C13.6672 5.67489 13.5514 5.76849 13.414 5.81113C11.3262 6.37412 9.46634 7.57503 8.09407 9.24618C6.72181 10.9173 5.90567 12.9753 5.75961 15.1327C5.75059 15.1725 5.75094 15.2138 5.76066 15.2534C5.77037 15.2929 5.78917 15.3297 5.81556 15.3608C5.84196 15.3918 5.87523 15.4163 5.91273 15.4323C5.95023 15.4482 5.99093 15.4552 6.03161 15.4527H7.96761C8.03377 15.4506 8.09712 15.4254 8.14676 15.3816C8.1964 15.3378 8.22923 15.2781 8.23961 15.2127C8.42081 13.4287 9.20957 11.7612 10.4737 10.4894C11.7379 9.21769 13.4007 8.41899 15.1836 8.22713C15.2194 8.22756 15.255 8.22082 15.2882 8.2073C15.3214 8.19378 15.3516 8.17377 15.3769 8.14842C15.4022 8.12308 15.4223 8.09292 15.4358 8.05973C15.4493 8.02653 15.456 7.99097 15.4556 7.95513V2.13433C15.4556 1.99005 15.5129 1.85169 15.6149 1.74967C15.717 1.64765 15.8553 1.59033 15.9996 1.59033C16.1439 1.59033 16.2823 1.64765 16.3843 1.74967C16.4863 1.85169 16.5436 1.99005 16.5436 2.13433V8.73593C16.5473 8.81296 16.5348 8.88991 16.507 8.96183C16.4791 9.03376 16.4366 9.09908 16.3821 9.15361C16.3276 9.20814 16.2622 9.25067 16.1903 9.27849C16.1184 9.3063 16.0414 9.31878 15.9644 9.31513C10.0476 9.31513 7.09081 16.5599 11.2732 20.7455C15.4556 24.9311 22.5948 21.9359 22.6972 15.9999C22.6964 15.9283 22.7098 15.8571 22.7369 15.7907C22.7639 15.7244 22.8039 15.664 22.8546 15.6134C22.9053 15.5627 22.9656 15.5226 23.032 15.4956C23.0984 15.4686 23.1695 15.4551 23.2412 15.4559H29.8396C29.9881 15.4559 30.1306 15.5149 30.2356 15.62C30.3406 15.725 30.3996 15.8674 30.3996 16.0159C30.3996 16.1645 30.3406 16.3069 30.2356 16.4119C30.1306 16.5169 29.9881 16.5759 29.8396 16.5759H27.6636C27.5961 16.5732 27.5301 16.5967 27.4795 16.6414C27.4288 16.6861 27.3973 16.7486 27.3916 16.8159C27.215 19.2469 26.2749 21.5599 24.7054 23.4247C23.136 25.2895 21.0175 26.6108 18.6524 27.1999C17.9388 27.3695 17.6924 26.2815 18.4124 26.1119C20.5246 25.5868 22.4187 24.4122 23.8281 22.7537C25.2374 21.0952 26.091 19.0363 26.2684 16.8671C26.2774 16.8274 26.2771 16.7861 26.2674 16.7465C26.2576 16.7069 26.2388 16.6701 26.2125 16.6391C26.1861 16.608 26.1528 16.5836 26.1153 16.5676C26.0778 16.5516 26.0371 16.5446 25.9964 16.5471H24.0252C23.959 16.5493 23.8957 16.5744 23.8461 16.6182C23.7964 16.662 23.7636 16.7217 23.7532 16.7871V16.7999ZM28.1596 7.75033L24.2268 11.6607C24.1307 11.765 23.9973 11.8272 23.8556 11.8335H21.2348C21.1633 11.8398 21.0942 11.8628 21.0332 11.9007L16.374 16.5951C16.2692 16.693 16.1306 16.7464 15.9872 16.7441C15.8439 16.7419 15.707 16.684 15.6054 16.5829C15.5038 16.4817 15.4454 16.3451 15.4426 16.2017C15.4397 16.0584 15.4926 15.9195 15.59 15.8143L20.2492 11.1167C20.2806 11.101 20.3068 11.0768 20.3249 11.0467C20.3431 11.0167 20.3523 10.9822 20.3516 10.9471V8.31993C20.3509 8.24425 20.3656 8.16921 20.3948 8.09936C20.4239 8.02951 20.4669 7.96629 20.5212 7.91353L24.4316 4.00633C24.5071 3.9247 24.6055 3.8677 24.7138 3.84275C24.8222 3.81781 24.9356 3.82608 25.0392 3.86648C25.1428 3.90688 25.2318 3.97755 25.2947 4.06928C25.3575 4.161 25.3913 4.26953 25.3916 4.38073V6.52473C25.3961 6.59539 25.4262 6.66197 25.4763 6.71204C25.5264 6.7621 25.593 6.79221 25.6636 6.79673H27.7724C27.8849 6.79378 27.9956 6.82479 28.0903 6.8857C28.1849 6.94661 28.2589 7.03461 28.3028 7.13823C28.3466 7.24185 28.3583 7.35627 28.3362 7.4666C28.3141 7.57692 28.2592 7.67802 28.1788 7.75673L28.1596 7.75033ZM23.6796 10.6303L25.958 8.35193C25.9976 8.31536 26.0256 8.26797 26.0385 8.21564C26.0514 8.16331 26.0486 8.10835 26.0305 8.05757C26.0125 8.00679 25.9799 7.96243 25.9369 7.93C25.8938 7.89757 25.8422 7.87849 25.7884 7.87513H24.8284C24.6798 7.87861 24.5358 7.82351 24.4274 7.72174C24.3191 7.61997 24.255 7.47967 24.2492 7.33113V6.39993C24.2489 6.34482 24.2325 6.291 24.2019 6.24514C24.1714 6.19928 24.128 6.16339 24.0773 6.14193C24.0265 6.12046 23.9706 6.11437 23.9164 6.12439C23.8622 6.13442 23.8121 6.16013 23.7724 6.19833L21.5324 8.47673C21.4726 8.52883 21.4358 8.60244 21.43 8.68153V10.4511C21.4296 10.487 21.4363 10.5225 21.4498 10.5557C21.4634 10.5889 21.4834 10.6191 21.5087 10.6444C21.5341 10.6698 21.5642 10.6898 21.5974 10.7033C21.6306 10.7168 21.6662 10.7236 21.702 10.7231H23.5036C23.574 10.7231 23.6412 10.7231 23.6732 10.6527L23.6796 10.6303ZM20.6204 16.0063C20.6217 16.9213 20.3515 17.816 19.844 18.5774C19.3366 19.3387 18.6146 19.9323 17.7696 20.2832C16.9246 20.6341 15.9945 20.7264 15.0971 20.5484C14.1996 20.3705 13.3751 19.9303 12.7279 19.2835C12.0807 18.6368 11.6399 17.8126 11.4613 16.9152C11.2828 16.0179 11.3744 15.0877 11.7247 14.2425C12.075 13.3972 12.6681 12.6749 13.4291 12.1669C14.1901 11.6589 15.0847 11.3881 15.9996 11.3887C16.1371 11.3993 16.2655 11.4613 16.3592 11.5625C16.4529 11.6636 16.505 11.7964 16.505 11.9343C16.505 12.0722 16.4529 12.205 16.3592 12.3062C16.2655 12.4073 16.1371 12.4694 15.9996 12.4799C15.066 12.4799 14.1707 12.8508 13.5106 13.5109C12.8505 14.171 12.4796 15.0664 12.4796 15.9999C12.4796 16.9335 12.8505 17.8288 13.5106 18.4889C14.1707 19.1491 15.066 19.5199 15.9996 19.5199C18.0412 19.5199 19.4012 17.9903 19.5004 15.9999C19.4972 15.9227 19.5099 15.8457 19.5378 15.7736C19.5657 15.7015 19.608 15.636 19.6623 15.581C19.7166 15.526 19.7816 15.4828 19.8534 15.454C19.9251 15.4252 20.0019 15.4115 20.0792 15.4137C20.1564 15.4159 20.2324 15.434 20.3023 15.4668C20.3723 15.4996 20.4347 15.5465 20.4858 15.6044C20.5369 15.6624 20.5755 15.7303 20.5992 15.8039C20.6229 15.8774 20.6312 15.955 20.6236 16.0319L20.6204 16.0063Z" fill="#4148FF"></path>
</svg>
