<svg width="28" height="28" fill="none" xmlns="http://www.w3.org/2000/svg"><g clip-path="url('#clip0_707_4210')" fill="#4148FF"><path d="M25.372 5.834c.277-.379.44-.845.44-1.35a2.3 2.3 0 0 0-2.296-2.296c-.504 0-.97.163-1.35.44A13.862 13.862 0 0 0 14 0a13.91 13.91 0 0 0-8.064 2.554.547.547 0 1 0 .63.894 12.8 12.8 0 0 1 5.252-2.17c-.22.278-.44.613-.657 1.017-.664 1.233-1.211 2.93-1.593 4.93A2.301 2.301 0 0 0 7.504 8.97H2.11c.318-.75.708-1.473 1.169-2.158a.547.547 0 0 0-.908-.61A13.933 13.933 0 0 0 0 14c0 2.963.908 5.777 2.628 8.166-.277.38-.44.846-.44 1.35a2.3 2.3 0 0 0 2.296 2.297c.505 0 .971-.164 1.35-.44A13.865 13.865 0 0 0 14 28c3.74 0 7.255-1.456 9.9-4.1A13.909 13.909 0 0 0 28 14c0-2.964-.907-5.777-2.628-8.166Zm.92 12.104h-5.833a2.305 2.305 0 0 0-1.494-1.629 40.778 40.778 0 0 0-.125-6.246h7.458A12.91 12.91 0 0 1 26.906 14c0 1.373-.216 2.696-.615 3.938ZM14 26.905c-.916 0-1.908-1.333-2.652-3.566-.417-1.252-.74-2.714-.958-4.309h5.608a2.306 2.306 0 0 0 1.353 1.576c-.832 4.346-2.267 6.3-3.351 6.3ZM4.484 21.22c-.365 0-.711.086-1.018.239a12.863 12.863 0 0 1-1.358-2.427h7.18c.227 1.721.572 3.303 1.022 4.655.434 1.3.938 2.317 1.5 3.037a12.744 12.744 0 0 1-5.268-2.189c.153-.307.24-.653.24-1.018a2.3 2.3 0 0 0-2.298-2.297ZM10.063 14c0-.746.021-1.49.062-2.222a2.303 2.303 0 0 0 1.84-1.716h5.776c.13 1.258.197 2.582.197 3.938 0 .744-.022 1.486-.063 2.215a2.303 2.303 0 0 0-1.877 1.723H10.26A38.565 38.565 0 0 1 10.063 14Zm8.166 5.688a1.205 1.205 0 0 1 0-2.406c.663 0 1.203.539 1.203 1.202 0 .664-.54 1.203-1.203 1.203Zm-.54-15.374c-.433-1.3-.937-2.317-1.5-3.037a12.742 12.742 0 0 1 5.27 2.189c-.154.307-.24.653-.24 1.018a2.3 2.3 0 0 0 3.316 2.058 12.86 12.86 0 0 1 1.357 2.427h-7.18c-.227-1.721-.572-3.303-1.022-4.655Zm7.03.17c0 .664-.54 1.204-1.203 1.204s-1.203-.54-1.203-1.204c0-.663.54-1.203 1.203-1.203s1.203.54 1.203 1.203ZM14 1.094c.916 0 1.908 1.333 2.652 3.566.417 1.252.74 2.714.958 4.309h-5.645a2.306 2.306 0 0 0-1.319-1.56C11.479 3.05 12.915 1.093 14 1.093ZM9.734 8.313c.664 0 1.203.54 1.203 1.203s-.54 1.203-1.203 1.203-1.203-.54-1.203-1.203c0-.664.54-1.203 1.203-1.203Zm-2.23 1.75c.19.776.776 1.398 1.53 1.64A40.855 40.855 0 0 0 8.97 14c0 1.352.065 2.675.192 3.938H1.702A12.91 12.91 0 0 1 1.094 14c0-1.35.208-2.675.612-3.937h5.798ZM3.28 23.516c0-.664.54-1.203 1.203-1.203.664 0 1.204.54 1.204 1.203s-.54 1.203-1.204 1.203c-.663 0-1.203-.54-1.203-1.203Zm12.903 3.205c.217-.277.436-.609.651-1.009.666-1.233 1.215-2.934 1.598-4.94a2.301 2.301 0 0 0 2.026-1.74h5.426c-1.69 3.978-5.323 6.94-9.7 7.689Z"/><path d="M4.379 5.144a.55.55 0 0 0 .547-.547.551.551 0 0 0-.16-.387.55.55 0 0 0-.934.387.55.55 0 0 0 .547.547Z"/></g><defs><clipPath id="clip0_707_4210"><path fill="#fff" d="M0 0h28v28H0z"/></clipPath></defs></svg>